G04 #@! TF.GenerationSoftware,KiCad,Pcbnew,(5.1.5)-3*
G04 #@! TF.CreationDate,2023-02-14T15:50:30-08:00*
G04 #@! TF.ProjectId,LED_Strobe,4c45445f-5374-4726-9f62-652e6b696361,rev?*
G04 #@! TF.SameCoordinates,Original*
G04 #@! TF.FileFunction,Legend,Top*
G04 #@! TF.FilePolarity,Positive*
%FSLAX46Y46*%
G04 Gerber Fmt 4.6, Leading zero omitted, Abs format (unit mm)*
G04 Created by KiCad (PCBNEW (5.1.5)-3) date 2023-02-14 15:50:30*
%MOMM*%
%LPD*%
G04 APERTURE LIST*
%ADD10C,0.076200*%
%ADD11C,0.120000*%
%ADD12C,0.150000*%
G04 APERTURE END LIST*
D10*
X120363342Y-90328387D02*
X120363342Y-90676730D01*
X120189171Y-90502558D02*
X120537514Y-90502558D01*
X120646371Y-90829130D02*
X120189171Y-90981530D01*
X120646371Y-91133930D01*
X120189171Y-92244272D02*
X120406885Y-92091872D01*
X120189171Y-91983015D02*
X120646371Y-91983015D01*
X120646371Y-92157187D01*
X120624600Y-92200730D01*
X120602828Y-92222501D01*
X120559285Y-92244272D01*
X120493971Y-92244272D01*
X120450428Y-92222501D01*
X120428657Y-92200730D01*
X120406885Y-92157187D01*
X120406885Y-91983015D01*
X120319800Y-92418444D02*
X120319800Y-92636158D01*
X120189171Y-92374901D02*
X120646371Y-92527301D01*
X120189171Y-92679701D01*
X120646371Y-92919187D02*
X120646371Y-92962730D01*
X120624600Y-93006272D01*
X120602828Y-93028044D01*
X120559285Y-93049815D01*
X120472200Y-93071587D01*
X120363342Y-93071587D01*
X120276257Y-93049815D01*
X120232714Y-93028044D01*
X120210942Y-93006272D01*
X120189171Y-92962730D01*
X120189171Y-92919187D01*
X120210942Y-92875644D01*
X120232714Y-92853872D01*
X120276257Y-92832101D01*
X120363342Y-92810330D01*
X120472200Y-92810330D01*
X120559285Y-92832101D01*
X120602828Y-92853872D01*
X120624600Y-92875644D01*
X120646371Y-92919187D01*
X120668142Y-93594101D02*
X120080314Y-93202215D01*
X120189171Y-93746501D02*
X120646371Y-93746501D01*
X120646371Y-93855358D01*
X120624600Y-93920672D01*
X120581057Y-93964215D01*
X120537514Y-93985987D01*
X120450428Y-94007758D01*
X120385114Y-94007758D01*
X120298028Y-93985987D01*
X120254485Y-93964215D01*
X120210942Y-93920672D01*
X120189171Y-93855358D01*
X120189171Y-93746501D01*
X120319800Y-94181930D02*
X120319800Y-94399644D01*
X120189171Y-94138387D02*
X120646371Y-94290787D01*
X120189171Y-94443187D01*
X120646371Y-94530272D02*
X120646371Y-94791530D01*
X120189171Y-94660901D02*
X120646371Y-94660901D01*
X120189171Y-95553530D02*
X120406885Y-95401130D01*
X120189171Y-95292272D02*
X120646371Y-95292272D01*
X120646371Y-95466444D01*
X120624600Y-95509987D01*
X120602828Y-95531758D01*
X120559285Y-95553530D01*
X120493971Y-95553530D01*
X120450428Y-95531758D01*
X120428657Y-95509987D01*
X120406885Y-95466444D01*
X120406885Y-95292272D01*
X120319800Y-95727701D02*
X120319800Y-95945415D01*
X120189171Y-95684158D02*
X120646371Y-95836558D01*
X120189171Y-95988958D01*
X120189171Y-96380844D02*
X120189171Y-96119587D01*
X120189171Y-96250215D02*
X120646371Y-96250215D01*
X120581057Y-96206672D01*
X120537514Y-96163130D01*
X120515742Y-96119587D01*
X120668142Y-96903358D02*
X120080314Y-96511472D01*
X120232714Y-97317015D02*
X120210942Y-97295244D01*
X120189171Y-97229930D01*
X120189171Y-97186387D01*
X120210942Y-97121072D01*
X120254485Y-97077530D01*
X120298028Y-97055758D01*
X120385114Y-97033987D01*
X120450428Y-97033987D01*
X120537514Y-97055758D01*
X120581057Y-97077530D01*
X120624600Y-97121072D01*
X120646371Y-97186387D01*
X120646371Y-97229930D01*
X120624600Y-97295244D01*
X120602828Y-97317015D01*
X120189171Y-97730672D02*
X120189171Y-97512958D01*
X120646371Y-97512958D01*
X120189171Y-97883072D02*
X120646371Y-97883072D01*
X120189171Y-98144330D02*
X120450428Y-97948387D01*
X120646371Y-98144330D02*
X120385114Y-97883072D01*
X120189171Y-98949872D02*
X120406885Y-98797472D01*
X120189171Y-98688615D02*
X120646371Y-98688615D01*
X120646371Y-98862787D01*
X120624600Y-98906330D01*
X120602828Y-98928101D01*
X120559285Y-98949872D01*
X120493971Y-98949872D01*
X120450428Y-98928101D01*
X120428657Y-98906330D01*
X120406885Y-98862787D01*
X120406885Y-98688615D01*
X120319800Y-99124044D02*
X120319800Y-99341758D01*
X120189171Y-99080501D02*
X120646371Y-99232901D01*
X120189171Y-99385301D01*
X120602828Y-99515930D02*
X120624600Y-99537701D01*
X120646371Y-99581244D01*
X120646371Y-99690101D01*
X120624600Y-99733644D01*
X120602828Y-99755415D01*
X120559285Y-99777187D01*
X120515742Y-99777187D01*
X120450428Y-99755415D01*
X120189171Y-99494158D01*
X120189171Y-99777187D01*
D11*
X120844000Y-89602000D02*
X122174000Y-89602000D01*
X120844000Y-90932000D02*
X120844000Y-89602000D01*
X123444000Y-89602000D02*
X126044000Y-89602000D01*
X123444000Y-92202000D02*
X123444000Y-89602000D01*
X120844000Y-92202000D02*
X123444000Y-92202000D01*
X126044000Y-89602000D02*
X126044000Y-99882000D01*
X120844000Y-92202000D02*
X120844000Y-99882000D01*
X120844000Y-99882000D02*
X126044000Y-99882000D01*
X115562748Y-102056000D02*
X116085252Y-102056000D01*
X115562748Y-100636000D02*
X116085252Y-100636000D01*
X126298000Y-105470000D02*
X126298000Y-102810000D01*
X123698000Y-105470000D02*
X126298000Y-105470000D01*
X123698000Y-102810000D02*
X126298000Y-102810000D01*
X123698000Y-105470000D02*
X123698000Y-102810000D01*
X122428000Y-105470000D02*
X121098000Y-105470000D01*
X121098000Y-105470000D02*
X121098000Y-104140000D01*
X118556000Y-103394000D02*
G75*
G02X119256000Y-104094000I0J-700000D01*
G01*
X119256000Y-104694000D02*
G75*
G02X118556000Y-105394000I-700000J0D01*
G01*
X117156000Y-105394000D02*
G75*
G02X116456000Y-104694000I0J700000D01*
G01*
X116456000Y-104094000D02*
G75*
G02X117156000Y-103394000I700000J0D01*
G01*
X116456000Y-104694000D02*
X116456000Y-104094000D01*
X118556000Y-105394000D02*
X117156000Y-105394000D01*
X119256000Y-104094000D02*
X119256000Y-104694000D01*
X117156000Y-103394000D02*
X118556000Y-103394000D01*
X112968000Y-103394000D02*
G75*
G02X113668000Y-104094000I0J-700000D01*
G01*
X113668000Y-104694000D02*
G75*
G02X112968000Y-105394000I-700000J0D01*
G01*
X111568000Y-105394000D02*
G75*
G02X110868000Y-104694000I0J700000D01*
G01*
X110868000Y-104094000D02*
G75*
G02X111568000Y-103394000I700000J0D01*
G01*
X110868000Y-104694000D02*
X110868000Y-104094000D01*
X112968000Y-105394000D02*
X111568000Y-105394000D01*
X113668000Y-104094000D02*
X113668000Y-104694000D01*
X111568000Y-103394000D02*
X112968000Y-103394000D01*
X117480000Y-89664000D02*
X115830000Y-89664000D01*
X117480000Y-99944000D02*
X117480000Y-89664000D01*
X112180000Y-99944000D02*
X117480000Y-99944000D01*
X112180000Y-89664000D02*
X112180000Y-99944000D01*
X113830000Y-89664000D02*
X112180000Y-89664000D01*
X115830000Y-89664000D02*
G75*
G02X113830000Y-89664000I-1000000J0D01*
G01*
X106418748Y-96468000D02*
X106941252Y-96468000D01*
X106418748Y-95048000D02*
X106941252Y-95048000D01*
X106427748Y-98858000D02*
X106950252Y-98858000D01*
X106427748Y-100278000D02*
X106950252Y-100278000D01*
X108240000Y-89852000D02*
X108240000Y-89696000D01*
X108240000Y-92168000D02*
X108240000Y-92012000D01*
X105638870Y-89852163D02*
G75*
G02X107720961Y-89852000I1041130J-1079837D01*
G01*
X105638870Y-92011837D02*
G75*
G03X107720961Y-92012000I1041130J1079837D01*
G01*
X105007665Y-89853392D02*
G75*
G02X108240000Y-89696484I1672335J-1078608D01*
G01*
X105007665Y-92010608D02*
G75*
G03X108240000Y-92167516I1672335J1078608D01*
G01*
X107986000Y-105376000D02*
X107986000Y-105220000D01*
X107986000Y-103060000D02*
X107986000Y-102904000D01*
X104753665Y-105218608D02*
G75*
G03X107986000Y-105375516I1672335J1078608D01*
G01*
X104753665Y-103061392D02*
G75*
G02X107986000Y-102904484I1672335J-1078608D01*
G01*
X105384870Y-105219837D02*
G75*
G03X107466961Y-105220000I1041130J1079837D01*
G01*
X105384870Y-103060163D02*
G75*
G02X107466961Y-103060000I1041130J-1079837D01*
G01*
D12*
X123110666Y-88054380D02*
X123110666Y-88768666D01*
X123063047Y-88911523D01*
X122967809Y-89006761D01*
X122824952Y-89054380D01*
X122729714Y-89054380D01*
X124110666Y-89054380D02*
X123539238Y-89054380D01*
X123824952Y-89054380D02*
X123824952Y-88054380D01*
X123729714Y-88197238D01*
X123634476Y-88292476D01*
X123539238Y-88340095D01*
X112609333Y-101544380D02*
X112276000Y-101068190D01*
X112037904Y-101544380D02*
X112037904Y-100544380D01*
X112418857Y-100544380D01*
X112514095Y-100592000D01*
X112561714Y-100639619D01*
X112609333Y-100734857D01*
X112609333Y-100877714D01*
X112561714Y-100972952D01*
X112514095Y-101020571D01*
X112418857Y-101068190D01*
X112037904Y-101068190D01*
X112942666Y-100544380D02*
X113561714Y-100544380D01*
X113228380Y-100925333D01*
X113371238Y-100925333D01*
X113466476Y-100972952D01*
X113514095Y-101020571D01*
X113561714Y-101115809D01*
X113561714Y-101353904D01*
X113514095Y-101449142D01*
X113466476Y-101496761D01*
X113371238Y-101544380D01*
X113085523Y-101544380D01*
X112990285Y-101496761D01*
X112942666Y-101449142D01*
X123110666Y-101560380D02*
X123110666Y-102274666D01*
X123063047Y-102417523D01*
X122967809Y-102512761D01*
X122824952Y-102560380D01*
X122729714Y-102560380D01*
X123539238Y-101655619D02*
X123586857Y-101608000D01*
X123682095Y-101560380D01*
X123920190Y-101560380D01*
X124015428Y-101608000D01*
X124063047Y-101655619D01*
X124110666Y-101750857D01*
X124110666Y-101846095D01*
X124063047Y-101988952D01*
X123491619Y-102560380D01*
X124110666Y-102560380D01*
X117784666Y-102068380D02*
X117784666Y-102782666D01*
X117737047Y-102925523D01*
X117641809Y-103020761D01*
X117498952Y-103068380D01*
X117403714Y-103068380D01*
X118260857Y-103068380D02*
X118260857Y-102068380D01*
X118641809Y-102068380D01*
X118737047Y-102116000D01*
X118784666Y-102163619D01*
X118832285Y-102258857D01*
X118832285Y-102401714D01*
X118784666Y-102496952D01*
X118737047Y-102544571D01*
X118641809Y-102592190D01*
X118260857Y-102592190D01*
X119784666Y-103068380D02*
X119213238Y-103068380D01*
X119498952Y-103068380D02*
X119498952Y-102068380D01*
X119403714Y-102211238D01*
X119308476Y-102306476D01*
X119213238Y-102354095D01*
X116022666Y-106624380D02*
X116022666Y-105624380D01*
X116356000Y-106338666D01*
X116689333Y-105624380D01*
X116689333Y-106624380D01*
X117356000Y-105624380D02*
X117546476Y-105624380D01*
X117641714Y-105672000D01*
X117736952Y-105767238D01*
X117784571Y-105957714D01*
X117784571Y-106291047D01*
X117736952Y-106481523D01*
X117641714Y-106576761D01*
X117546476Y-106624380D01*
X117356000Y-106624380D01*
X117260761Y-106576761D01*
X117165523Y-106481523D01*
X117117904Y-106291047D01*
X117117904Y-105957714D01*
X117165523Y-105767238D01*
X117260761Y-105672000D01*
X117356000Y-105624380D01*
X118213142Y-106624380D02*
X118213142Y-105624380D01*
X118451238Y-105624380D01*
X118594095Y-105672000D01*
X118689333Y-105767238D01*
X118736952Y-105862476D01*
X118784571Y-106052952D01*
X118784571Y-106195809D01*
X118736952Y-106386285D01*
X118689333Y-106481523D01*
X118594095Y-106576761D01*
X118451238Y-106624380D01*
X118213142Y-106624380D01*
X119736952Y-106624380D02*
X119165523Y-106624380D01*
X119451238Y-106624380D02*
X119451238Y-105624380D01*
X119356000Y-105767238D01*
X119260761Y-105862476D01*
X119165523Y-105910095D01*
X111434666Y-102046380D02*
X111434666Y-102760666D01*
X111387047Y-102903523D01*
X111291809Y-102998761D01*
X111148952Y-103046380D01*
X111053714Y-103046380D01*
X111910857Y-103046380D02*
X111910857Y-102046380D01*
X112291809Y-102046380D01*
X112387047Y-102094000D01*
X112434666Y-102141619D01*
X112482285Y-102236857D01*
X112482285Y-102379714D01*
X112434666Y-102474952D01*
X112387047Y-102522571D01*
X112291809Y-102570190D01*
X111910857Y-102570190D01*
X112863238Y-102141619D02*
X112910857Y-102094000D01*
X113006095Y-102046380D01*
X113244190Y-102046380D01*
X113339428Y-102094000D01*
X113387047Y-102141619D01*
X113434666Y-102236857D01*
X113434666Y-102332095D01*
X113387047Y-102474952D01*
X112815619Y-103046380D01*
X113434666Y-103046380D01*
X110434666Y-106624380D02*
X110434666Y-105624380D01*
X110768000Y-106338666D01*
X111101333Y-105624380D01*
X111101333Y-106624380D01*
X111768000Y-105624380D02*
X111958476Y-105624380D01*
X112053714Y-105672000D01*
X112148952Y-105767238D01*
X112196571Y-105957714D01*
X112196571Y-106291047D01*
X112148952Y-106481523D01*
X112053714Y-106576761D01*
X111958476Y-106624380D01*
X111768000Y-106624380D01*
X111672761Y-106576761D01*
X111577523Y-106481523D01*
X111529904Y-106291047D01*
X111529904Y-105957714D01*
X111577523Y-105767238D01*
X111672761Y-105672000D01*
X111768000Y-105624380D01*
X112625142Y-106624380D02*
X112625142Y-105624380D01*
X112863238Y-105624380D01*
X113006095Y-105672000D01*
X113101333Y-105767238D01*
X113148952Y-105862476D01*
X113196571Y-106052952D01*
X113196571Y-106195809D01*
X113148952Y-106386285D01*
X113101333Y-106481523D01*
X113006095Y-106576761D01*
X112863238Y-106624380D01*
X112625142Y-106624380D01*
X113577523Y-105719619D02*
X113625142Y-105672000D01*
X113720380Y-105624380D01*
X113958476Y-105624380D01*
X114053714Y-105672000D01*
X114101333Y-105719619D01*
X114148952Y-105814857D01*
X114148952Y-105910095D01*
X114101333Y-106052952D01*
X113529904Y-106624380D01*
X114148952Y-106624380D01*
X114068095Y-88116380D02*
X114068095Y-88925904D01*
X114115714Y-89021142D01*
X114163333Y-89068761D01*
X114258571Y-89116380D01*
X114449047Y-89116380D01*
X114544285Y-89068761D01*
X114591904Y-89021142D01*
X114639523Y-88925904D01*
X114639523Y-88116380D01*
X115639523Y-89116380D02*
X115068095Y-89116380D01*
X115353809Y-89116380D02*
X115353809Y-88116380D01*
X115258571Y-88259238D01*
X115163333Y-88354476D01*
X115068095Y-88402095D01*
X106513333Y-94560380D02*
X106180000Y-94084190D01*
X105941904Y-94560380D02*
X105941904Y-93560380D01*
X106322857Y-93560380D01*
X106418095Y-93608000D01*
X106465714Y-93655619D01*
X106513333Y-93750857D01*
X106513333Y-93893714D01*
X106465714Y-93988952D01*
X106418095Y-94036571D01*
X106322857Y-94084190D01*
X105941904Y-94084190D01*
X106894285Y-93655619D02*
X106941904Y-93608000D01*
X107037142Y-93560380D01*
X107275238Y-93560380D01*
X107370476Y-93608000D01*
X107418095Y-93655619D01*
X107465714Y-93750857D01*
X107465714Y-93846095D01*
X107418095Y-93988952D01*
X106846666Y-94560380D01*
X107465714Y-94560380D01*
X106522333Y-98370380D02*
X106189000Y-97894190D01*
X105950904Y-98370380D02*
X105950904Y-97370380D01*
X106331857Y-97370380D01*
X106427095Y-97418000D01*
X106474714Y-97465619D01*
X106522333Y-97560857D01*
X106522333Y-97703714D01*
X106474714Y-97798952D01*
X106427095Y-97846571D01*
X106331857Y-97894190D01*
X105950904Y-97894190D01*
X107474714Y-98370380D02*
X106903285Y-98370380D01*
X107189000Y-98370380D02*
X107189000Y-97370380D01*
X107093761Y-97513238D01*
X106998523Y-97608476D01*
X106903285Y-97656095D01*
X105941904Y-88590380D02*
X105941904Y-87590380D01*
X106180000Y-87590380D01*
X106322857Y-87638000D01*
X106418095Y-87733238D01*
X106465714Y-87828476D01*
X106513333Y-88018952D01*
X106513333Y-88161809D01*
X106465714Y-88352285D01*
X106418095Y-88447523D01*
X106322857Y-88542761D01*
X106180000Y-88590380D01*
X105941904Y-88590380D01*
X106894285Y-87685619D02*
X106941904Y-87638000D01*
X107037142Y-87590380D01*
X107275238Y-87590380D01*
X107370476Y-87638000D01*
X107418095Y-87685619D01*
X107465714Y-87780857D01*
X107465714Y-87876095D01*
X107418095Y-88018952D01*
X106846666Y-88590380D01*
X107465714Y-88590380D01*
X105941904Y-101798380D02*
X105941904Y-100798380D01*
X106180000Y-100798380D01*
X106322857Y-100846000D01*
X106418095Y-100941238D01*
X106465714Y-101036476D01*
X106513333Y-101226952D01*
X106513333Y-101369809D01*
X106465714Y-101560285D01*
X106418095Y-101655523D01*
X106322857Y-101750761D01*
X106180000Y-101798380D01*
X105941904Y-101798380D01*
X107465714Y-101798380D02*
X106894285Y-101798380D01*
X107180000Y-101798380D02*
X107180000Y-100798380D01*
X107084761Y-100941238D01*
X106989523Y-101036476D01*
X106894285Y-101084095D01*
M02*
