G04 #@! TF.GenerationSoftware,KiCad,Pcbnew,(5.1.5)-3*
G04 #@! TF.CreationDate,2023-02-14T15:50:31-08:00*
G04 #@! TF.ProjectId,LED_Strobe,4c45445f-5374-4726-9f62-652e6b696361,rev?*
G04 #@! TF.SameCoordinates,Original*
G04 #@! TF.FileFunction,Soldermask,Bot*
G04 #@! TF.FilePolarity,Negative*
%FSLAX46Y46*%
G04 Gerber Fmt 4.6, Leading zero omitted, Abs format (unit mm)*
G04 Created by KiCad (PCBNEW (5.1.5)-3) date 2023-02-14 15:50:31*
%MOMM*%
%LPD*%
G04 APERTURE LIST*
%ADD10C,0.101600*%
%ADD11C,0.152400*%
%ADD12C,0.100000*%
G04 APERTURE END LIST*
D10*
X117777380Y-104684890D02*
X117777380Y-104126090D01*
X117777380Y-104338966D02*
X117724161Y-104312357D01*
X117617723Y-104312357D01*
X117564504Y-104338966D01*
X117537895Y-104365576D01*
X117511285Y-104418795D01*
X117511285Y-104578452D01*
X117537895Y-104631671D01*
X117564504Y-104658280D01*
X117617723Y-104684890D01*
X117724161Y-104684890D01*
X117777380Y-104658280D01*
X117325019Y-104312357D02*
X117191971Y-104684890D01*
X117058923Y-104312357D02*
X117191971Y-104684890D01*
X117245190Y-104817938D01*
X117271800Y-104844547D01*
X117325019Y-104871157D01*
X116846047Y-104631671D02*
X116819438Y-104658280D01*
X116846047Y-104684890D01*
X116872657Y-104658280D01*
X116846047Y-104631671D01*
X116846047Y-104684890D01*
X116846047Y-104338966D02*
X116819438Y-104365576D01*
X116846047Y-104392185D01*
X116872657Y-104365576D01*
X116846047Y-104338966D01*
X116846047Y-104392185D01*
X116180809Y-104658280D02*
X116127590Y-104684890D01*
X116021152Y-104684890D01*
X115967933Y-104658280D01*
X115941323Y-104605061D01*
X115941323Y-104578452D01*
X115967933Y-104525233D01*
X116021152Y-104498623D01*
X116100980Y-104498623D01*
X116154200Y-104472014D01*
X116180809Y-104418795D01*
X116180809Y-104392185D01*
X116154200Y-104338966D01*
X116100980Y-104312357D01*
X116021152Y-104312357D01*
X115967933Y-104338966D01*
X115781666Y-104126090D02*
X115462352Y-104126090D01*
X115622009Y-104684890D02*
X115622009Y-104126090D01*
X115063209Y-104658280D02*
X115116428Y-104684890D01*
X115222866Y-104684890D01*
X115276085Y-104658280D01*
X115302695Y-104605061D01*
X115302695Y-104392185D01*
X115276085Y-104338966D01*
X115222866Y-104312357D01*
X115116428Y-104312357D01*
X115063209Y-104338966D01*
X115036600Y-104392185D01*
X115036600Y-104445404D01*
X115302695Y-104498623D01*
X114876942Y-104126090D02*
X114690676Y-104684890D01*
X114504409Y-104126090D01*
X114105266Y-104658280D02*
X114158485Y-104684890D01*
X114264923Y-104684890D01*
X114318142Y-104658280D01*
X114344752Y-104605061D01*
X114344752Y-104392185D01*
X114318142Y-104338966D01*
X114264923Y-104312357D01*
X114158485Y-104312357D01*
X114105266Y-104338966D01*
X114078657Y-104392185D01*
X114078657Y-104445404D01*
X114344752Y-104498623D01*
X113227152Y-104392185D02*
X113147323Y-104418795D01*
X113120714Y-104445404D01*
X113094104Y-104498623D01*
X113094104Y-104578452D01*
X113120714Y-104631671D01*
X113147323Y-104658280D01*
X113200542Y-104684890D01*
X113413419Y-104684890D01*
X113413419Y-104126090D01*
X113227152Y-104126090D01*
X113173933Y-104152700D01*
X113147323Y-104179309D01*
X113120714Y-104232528D01*
X113120714Y-104285747D01*
X113147323Y-104338966D01*
X113173933Y-104365576D01*
X113227152Y-104392185D01*
X113413419Y-104392185D01*
X112854619Y-104631671D02*
X112828009Y-104658280D01*
X112854619Y-104684890D01*
X112881228Y-104658280D01*
X112854619Y-104631671D01*
X112854619Y-104684890D01*
X118309571Y-105624690D02*
X118495838Y-105358595D01*
X118628885Y-105624690D02*
X118628885Y-105065890D01*
X118416009Y-105065890D01*
X118362790Y-105092500D01*
X118336180Y-105119109D01*
X118309571Y-105172328D01*
X118309571Y-105252157D01*
X118336180Y-105305376D01*
X118362790Y-105331985D01*
X118416009Y-105358595D01*
X118628885Y-105358595D01*
X117857209Y-105598080D02*
X117910428Y-105624690D01*
X118016866Y-105624690D01*
X118070085Y-105598080D01*
X118096695Y-105544861D01*
X118096695Y-105331985D01*
X118070085Y-105278766D01*
X118016866Y-105252157D01*
X117910428Y-105252157D01*
X117857209Y-105278766D01*
X117830600Y-105331985D01*
X117830600Y-105385204D01*
X118096695Y-105438423D01*
X117644333Y-105252157D02*
X117511285Y-105624690D01*
X117378238Y-105252157D01*
X117165361Y-105571471D02*
X117138752Y-105598080D01*
X117165361Y-105624690D01*
X117191971Y-105598080D01*
X117165361Y-105571471D01*
X117165361Y-105624690D01*
X117165361Y-105278766D02*
X117138752Y-105305376D01*
X117165361Y-105331985D01*
X117191971Y-105305376D01*
X117165361Y-105278766D01*
X117165361Y-105331985D01*
X116367076Y-105065890D02*
X116313857Y-105065890D01*
X116260638Y-105092500D01*
X116234028Y-105119109D01*
X116207419Y-105172328D01*
X116180809Y-105278766D01*
X116180809Y-105411814D01*
X116207419Y-105518252D01*
X116234028Y-105571471D01*
X116260638Y-105598080D01*
X116313857Y-105624690D01*
X116367076Y-105624690D01*
X116420295Y-105598080D01*
X116446904Y-105571471D01*
X116473514Y-105518252D01*
X116500123Y-105411814D01*
X116500123Y-105278766D01*
X116473514Y-105172328D01*
X116446904Y-105119109D01*
X116420295Y-105092500D01*
X116367076Y-105065890D01*
X115967933Y-105119109D02*
X115941323Y-105092500D01*
X115888104Y-105065890D01*
X115755057Y-105065890D01*
X115701838Y-105092500D01*
X115675228Y-105119109D01*
X115648619Y-105172328D01*
X115648619Y-105225547D01*
X115675228Y-105305376D01*
X115994542Y-105624690D01*
X115648619Y-105624690D01*
X115116428Y-105624690D02*
X115435742Y-105624690D01*
X115276085Y-105624690D02*
X115276085Y-105065890D01*
X115329304Y-105145719D01*
X115382523Y-105198938D01*
X115435742Y-105225547D01*
X114930161Y-105065890D02*
X114584238Y-105065890D01*
X114770504Y-105278766D01*
X114690676Y-105278766D01*
X114637457Y-105305376D01*
X114610847Y-105331985D01*
X114584238Y-105385204D01*
X114584238Y-105518252D01*
X114610847Y-105571471D01*
X114637457Y-105598080D01*
X114690676Y-105624690D01*
X114850333Y-105624690D01*
X114903552Y-105598080D01*
X114930161Y-105571471D01*
X114371361Y-105119109D02*
X114344752Y-105092500D01*
X114291533Y-105065890D01*
X114158485Y-105065890D01*
X114105266Y-105092500D01*
X114078657Y-105119109D01*
X114052047Y-105172328D01*
X114052047Y-105225547D01*
X114078657Y-105305376D01*
X114397971Y-105624690D01*
X114052047Y-105624690D01*
X113706123Y-105065890D02*
X113652904Y-105065890D01*
X113599685Y-105092500D01*
X113573076Y-105119109D01*
X113546466Y-105172328D01*
X113519857Y-105278766D01*
X113519857Y-105411814D01*
X113546466Y-105518252D01*
X113573076Y-105571471D01*
X113599685Y-105598080D01*
X113652904Y-105624690D01*
X113706123Y-105624690D01*
X113759342Y-105598080D01*
X113785952Y-105571471D01*
X113812561Y-105518252D01*
X113839171Y-105411814D01*
X113839171Y-105278766D01*
X113812561Y-105172328D01*
X113785952Y-105119109D01*
X113759342Y-105092500D01*
X113706123Y-105065890D01*
X113306980Y-105119109D02*
X113280371Y-105092500D01*
X113227152Y-105065890D01*
X113094104Y-105065890D01*
X113040885Y-105092500D01*
X113014276Y-105119109D01*
X112987666Y-105172328D01*
X112987666Y-105225547D01*
X113014276Y-105305376D01*
X113333590Y-105624690D01*
X112987666Y-105624690D01*
X112801400Y-105065890D02*
X112455476Y-105065890D01*
X112641742Y-105278766D01*
X112561914Y-105278766D01*
X112508695Y-105305376D01*
X112482085Y-105331985D01*
X112455476Y-105385204D01*
X112455476Y-105518252D01*
X112482085Y-105571471D01*
X112508695Y-105598080D01*
X112561914Y-105624690D01*
X112721571Y-105624690D01*
X112774790Y-105598080D01*
X112801400Y-105571471D01*
X112242600Y-105465033D02*
X111976504Y-105465033D01*
X112295819Y-105624690D02*
X112109552Y-105065890D01*
X111923285Y-105624690D01*
D11*
X119008071Y-88903023D02*
X118917357Y-88933261D01*
X118766166Y-88933261D01*
X118705690Y-88903023D01*
X118675452Y-88872785D01*
X118645214Y-88812309D01*
X118645214Y-88751833D01*
X118675452Y-88691357D01*
X118705690Y-88661119D01*
X118766166Y-88630880D01*
X118887119Y-88600642D01*
X118947595Y-88570404D01*
X118977833Y-88540166D01*
X119008071Y-88479690D01*
X119008071Y-88419214D01*
X118977833Y-88358738D01*
X118947595Y-88328500D01*
X118887119Y-88298261D01*
X118735928Y-88298261D01*
X118645214Y-88328500D01*
X118463785Y-88509928D02*
X118221880Y-88509928D01*
X118373071Y-88298261D02*
X118373071Y-88842547D01*
X118342833Y-88903023D01*
X118282357Y-88933261D01*
X118221880Y-88933261D01*
X118010214Y-88933261D02*
X118010214Y-88509928D01*
X118010214Y-88630880D02*
X117979976Y-88570404D01*
X117949738Y-88540166D01*
X117889261Y-88509928D01*
X117828785Y-88509928D01*
X117526404Y-88933261D02*
X117586880Y-88903023D01*
X117617119Y-88872785D01*
X117647357Y-88812309D01*
X117647357Y-88630880D01*
X117617119Y-88570404D01*
X117586880Y-88540166D01*
X117526404Y-88509928D01*
X117435690Y-88509928D01*
X117375214Y-88540166D01*
X117344976Y-88570404D01*
X117314738Y-88630880D01*
X117314738Y-88812309D01*
X117344976Y-88872785D01*
X117375214Y-88903023D01*
X117435690Y-88933261D01*
X117526404Y-88933261D01*
X117042595Y-88933261D02*
X117042595Y-88298261D01*
X117042595Y-88540166D02*
X116982119Y-88509928D01*
X116861166Y-88509928D01*
X116800690Y-88540166D01*
X116770452Y-88570404D01*
X116740214Y-88630880D01*
X116740214Y-88812309D01*
X116770452Y-88872785D01*
X116800690Y-88903023D01*
X116861166Y-88933261D01*
X116982119Y-88933261D01*
X117042595Y-88903023D01*
X116226166Y-88903023D02*
X116286642Y-88933261D01*
X116407595Y-88933261D01*
X116468071Y-88903023D01*
X116498309Y-88842547D01*
X116498309Y-88600642D01*
X116468071Y-88540166D01*
X116407595Y-88509928D01*
X116286642Y-88509928D01*
X116226166Y-88540166D01*
X116195928Y-88600642D01*
X116195928Y-88661119D01*
X116498309Y-88721595D01*
X114986404Y-88268023D02*
X115530690Y-89084452D01*
X114079261Y-88600642D02*
X113988547Y-88630880D01*
X113958309Y-88661119D01*
X113928071Y-88721595D01*
X113928071Y-88812309D01*
X113958309Y-88872785D01*
X113988547Y-88903023D01*
X114049023Y-88933261D01*
X114290928Y-88933261D01*
X114290928Y-88298261D01*
X114079261Y-88298261D01*
X114018785Y-88328500D01*
X113988547Y-88358738D01*
X113958309Y-88419214D01*
X113958309Y-88479690D01*
X113988547Y-88540166D01*
X114018785Y-88570404D01*
X114079261Y-88600642D01*
X114290928Y-88600642D01*
X113414023Y-88903023D02*
X113474500Y-88933261D01*
X113595452Y-88933261D01*
X113655928Y-88903023D01*
X113686166Y-88842547D01*
X113686166Y-88600642D01*
X113655928Y-88540166D01*
X113595452Y-88509928D01*
X113474500Y-88509928D01*
X113414023Y-88540166D01*
X113383785Y-88600642D01*
X113383785Y-88661119D01*
X113686166Y-88721595D01*
X112839500Y-88933261D02*
X112839500Y-88600642D01*
X112869738Y-88540166D01*
X112930214Y-88509928D01*
X113051166Y-88509928D01*
X113111642Y-88540166D01*
X112839500Y-88903023D02*
X112899976Y-88933261D01*
X113051166Y-88933261D01*
X113111642Y-88903023D01*
X113141880Y-88842547D01*
X113141880Y-88782071D01*
X113111642Y-88721595D01*
X113051166Y-88691357D01*
X112899976Y-88691357D01*
X112839500Y-88661119D01*
X112264976Y-88903023D02*
X112325452Y-88933261D01*
X112446404Y-88933261D01*
X112506880Y-88903023D01*
X112537119Y-88872785D01*
X112567357Y-88812309D01*
X112567357Y-88630880D01*
X112537119Y-88570404D01*
X112506880Y-88540166D01*
X112446404Y-88509928D01*
X112325452Y-88509928D01*
X112264976Y-88540166D01*
X111902119Y-88933261D02*
X111962595Y-88903023D01*
X111992833Y-88872785D01*
X112023071Y-88812309D01*
X112023071Y-88630880D01*
X111992833Y-88570404D01*
X111962595Y-88540166D01*
X111902119Y-88509928D01*
X111811404Y-88509928D01*
X111750928Y-88540166D01*
X111720690Y-88570404D01*
X111690452Y-88630880D01*
X111690452Y-88812309D01*
X111720690Y-88872785D01*
X111750928Y-88903023D01*
X111811404Y-88933261D01*
X111902119Y-88933261D01*
X111418309Y-88509928D02*
X111418309Y-88933261D01*
X111418309Y-88570404D02*
X111388071Y-88540166D01*
X111327595Y-88509928D01*
X111236880Y-88509928D01*
X111176404Y-88540166D01*
X111146166Y-88600642D01*
X111146166Y-88933261D01*
D12*
G36*
X108647000Y-105091000D02*
G01*
X106745000Y-105091000D01*
X106745000Y-103189000D01*
X108647000Y-103189000D01*
X108647000Y-105091000D01*
G37*
G36*
X105433395Y-103225546D02*
G01*
X105606466Y-103297234D01*
X105606467Y-103297235D01*
X105762227Y-103401310D01*
X105894690Y-103533773D01*
X105894691Y-103533775D01*
X105998766Y-103689534D01*
X106070454Y-103862605D01*
X106107000Y-104046333D01*
X106107000Y-104233667D01*
X106070454Y-104417395D01*
X105998766Y-104590466D01*
X105998765Y-104590467D01*
X105894690Y-104746227D01*
X105762227Y-104878690D01*
X105683818Y-104931081D01*
X105606466Y-104982766D01*
X105433395Y-105054454D01*
X105249667Y-105091000D01*
X105062333Y-105091000D01*
X104878605Y-105054454D01*
X104705534Y-104982766D01*
X104628182Y-104931081D01*
X104549773Y-104878690D01*
X104417310Y-104746227D01*
X104313235Y-104590467D01*
X104313234Y-104590466D01*
X104241546Y-104417395D01*
X104205000Y-104233667D01*
X104205000Y-104046333D01*
X104241546Y-103862605D01*
X104313234Y-103689534D01*
X104417309Y-103533775D01*
X104417310Y-103533773D01*
X104549773Y-103401310D01*
X104705533Y-103297235D01*
X104705534Y-103297234D01*
X104878605Y-103225546D01*
X105062333Y-103189000D01*
X105249667Y-103189000D01*
X105433395Y-103225546D01*
G37*
G36*
X123329000Y-105041000D02*
G01*
X121527000Y-105041000D01*
X121527000Y-103239000D01*
X123329000Y-103239000D01*
X123329000Y-105041000D01*
G37*
G36*
X125081512Y-103243927D02*
G01*
X125230812Y-103273624D01*
X125394784Y-103341544D01*
X125542354Y-103440147D01*
X125667853Y-103565646D01*
X125766456Y-103713216D01*
X125834376Y-103877188D01*
X125869000Y-104051259D01*
X125869000Y-104228741D01*
X125834376Y-104402812D01*
X125766456Y-104566784D01*
X125667853Y-104714354D01*
X125542354Y-104839853D01*
X125394784Y-104938456D01*
X125230812Y-105006376D01*
X125081512Y-105036073D01*
X125056742Y-105041000D01*
X124879258Y-105041000D01*
X124854488Y-105036073D01*
X124705188Y-105006376D01*
X124541216Y-104938456D01*
X124393646Y-104839853D01*
X124268147Y-104714354D01*
X124169544Y-104566784D01*
X124101624Y-104402812D01*
X124067000Y-104228741D01*
X124067000Y-104051259D01*
X124101624Y-103877188D01*
X124169544Y-103713216D01*
X124268147Y-103565646D01*
X124393646Y-103440147D01*
X124541216Y-103341544D01*
X124705188Y-103273624D01*
X124854488Y-103243927D01*
X124879258Y-103239000D01*
X125056742Y-103239000D01*
X125081512Y-103243927D01*
G37*
G36*
X118888228Y-97795703D02*
G01*
X119043100Y-97859853D01*
X119182481Y-97952985D01*
X119301015Y-98071519D01*
X119394147Y-98210900D01*
X119458297Y-98365772D01*
X119491000Y-98530184D01*
X119491000Y-98697816D01*
X119458297Y-98862228D01*
X119394147Y-99017100D01*
X119301015Y-99156481D01*
X119182481Y-99275015D01*
X119043100Y-99368147D01*
X118888228Y-99432297D01*
X118723816Y-99465000D01*
X118556184Y-99465000D01*
X118391772Y-99432297D01*
X118236900Y-99368147D01*
X118097519Y-99275015D01*
X117978985Y-99156481D01*
X117885853Y-99017100D01*
X117821703Y-98862228D01*
X117789000Y-98697816D01*
X117789000Y-98530184D01*
X117821703Y-98365772D01*
X117885853Y-98210900D01*
X117978985Y-98071519D01*
X118097519Y-97952985D01*
X118236900Y-97859853D01*
X118391772Y-97795703D01*
X118556184Y-97763000D01*
X118723816Y-97763000D01*
X118888228Y-97795703D01*
G37*
G36*
X111268228Y-97795703D02*
G01*
X111423100Y-97859853D01*
X111562481Y-97952985D01*
X111681015Y-98071519D01*
X111774147Y-98210900D01*
X111838297Y-98365772D01*
X111871000Y-98530184D01*
X111871000Y-98697816D01*
X111838297Y-98862228D01*
X111774147Y-99017100D01*
X111681015Y-99156481D01*
X111562481Y-99275015D01*
X111423100Y-99368147D01*
X111268228Y-99432297D01*
X111103816Y-99465000D01*
X110936184Y-99465000D01*
X110771772Y-99432297D01*
X110616900Y-99368147D01*
X110477519Y-99275015D01*
X110358985Y-99156481D01*
X110265853Y-99017100D01*
X110201703Y-98862228D01*
X110169000Y-98697816D01*
X110169000Y-98530184D01*
X110201703Y-98365772D01*
X110265853Y-98210900D01*
X110358985Y-98071519D01*
X110477519Y-97952985D01*
X110616900Y-97859853D01*
X110771772Y-97795703D01*
X110936184Y-97763000D01*
X111103816Y-97763000D01*
X111268228Y-97795703D01*
G37*
G36*
X124827512Y-97655927D02*
G01*
X124976812Y-97685624D01*
X125140784Y-97753544D01*
X125288354Y-97852147D01*
X125413853Y-97977646D01*
X125512456Y-98125216D01*
X125580376Y-98289188D01*
X125615000Y-98463259D01*
X125615000Y-98640741D01*
X125580376Y-98814812D01*
X125512456Y-98978784D01*
X125413853Y-99126354D01*
X125288354Y-99251853D01*
X125140784Y-99350456D01*
X124976812Y-99418376D01*
X124827512Y-99448073D01*
X124802742Y-99453000D01*
X124625258Y-99453000D01*
X124600488Y-99448073D01*
X124451188Y-99418376D01*
X124287216Y-99350456D01*
X124139646Y-99251853D01*
X124014147Y-99126354D01*
X123915544Y-98978784D01*
X123847624Y-98814812D01*
X123813000Y-98640741D01*
X123813000Y-98463259D01*
X123847624Y-98289188D01*
X123915544Y-98125216D01*
X124014147Y-97977646D01*
X124139646Y-97852147D01*
X124287216Y-97753544D01*
X124451188Y-97685624D01*
X124600488Y-97655927D01*
X124625258Y-97651000D01*
X124802742Y-97651000D01*
X124827512Y-97655927D01*
G37*
G36*
X122287512Y-97655927D02*
G01*
X122436812Y-97685624D01*
X122600784Y-97753544D01*
X122748354Y-97852147D01*
X122873853Y-97977646D01*
X122972456Y-98125216D01*
X123040376Y-98289188D01*
X123075000Y-98463259D01*
X123075000Y-98640741D01*
X123040376Y-98814812D01*
X122972456Y-98978784D01*
X122873853Y-99126354D01*
X122748354Y-99251853D01*
X122600784Y-99350456D01*
X122436812Y-99418376D01*
X122287512Y-99448073D01*
X122262742Y-99453000D01*
X122085258Y-99453000D01*
X122060488Y-99448073D01*
X121911188Y-99418376D01*
X121747216Y-99350456D01*
X121599646Y-99251853D01*
X121474147Y-99126354D01*
X121375544Y-98978784D01*
X121307624Y-98814812D01*
X121273000Y-98640741D01*
X121273000Y-98463259D01*
X121307624Y-98289188D01*
X121375544Y-98125216D01*
X121474147Y-97977646D01*
X121599646Y-97852147D01*
X121747216Y-97753544D01*
X121911188Y-97685624D01*
X122060488Y-97655927D01*
X122085258Y-97651000D01*
X122262742Y-97651000D01*
X122287512Y-97655927D01*
G37*
G36*
X118888228Y-95255703D02*
G01*
X119043100Y-95319853D01*
X119182481Y-95412985D01*
X119301015Y-95531519D01*
X119394147Y-95670900D01*
X119458297Y-95825772D01*
X119491000Y-95990184D01*
X119491000Y-96157816D01*
X119458297Y-96322228D01*
X119394147Y-96477100D01*
X119301015Y-96616481D01*
X119182481Y-96735015D01*
X119043100Y-96828147D01*
X118888228Y-96892297D01*
X118723816Y-96925000D01*
X118556184Y-96925000D01*
X118391772Y-96892297D01*
X118236900Y-96828147D01*
X118097519Y-96735015D01*
X117978985Y-96616481D01*
X117885853Y-96477100D01*
X117821703Y-96322228D01*
X117789000Y-96157816D01*
X117789000Y-95990184D01*
X117821703Y-95825772D01*
X117885853Y-95670900D01*
X117978985Y-95531519D01*
X118097519Y-95412985D01*
X118236900Y-95319853D01*
X118391772Y-95255703D01*
X118556184Y-95223000D01*
X118723816Y-95223000D01*
X118888228Y-95255703D01*
G37*
G36*
X111268228Y-95255703D02*
G01*
X111423100Y-95319853D01*
X111562481Y-95412985D01*
X111681015Y-95531519D01*
X111774147Y-95670900D01*
X111838297Y-95825772D01*
X111871000Y-95990184D01*
X111871000Y-96157816D01*
X111838297Y-96322228D01*
X111774147Y-96477100D01*
X111681015Y-96616481D01*
X111562481Y-96735015D01*
X111423100Y-96828147D01*
X111268228Y-96892297D01*
X111103816Y-96925000D01*
X110936184Y-96925000D01*
X110771772Y-96892297D01*
X110616900Y-96828147D01*
X110477519Y-96735015D01*
X110358985Y-96616481D01*
X110265853Y-96477100D01*
X110201703Y-96322228D01*
X110169000Y-96157816D01*
X110169000Y-95990184D01*
X110201703Y-95825772D01*
X110265853Y-95670900D01*
X110358985Y-95531519D01*
X110477519Y-95412985D01*
X110616900Y-95319853D01*
X110771772Y-95255703D01*
X110936184Y-95223000D01*
X111103816Y-95223000D01*
X111268228Y-95255703D01*
G37*
G36*
X124827512Y-95115927D02*
G01*
X124976812Y-95145624D01*
X125140784Y-95213544D01*
X125288354Y-95312147D01*
X125413853Y-95437646D01*
X125512456Y-95585216D01*
X125580376Y-95749188D01*
X125615000Y-95923259D01*
X125615000Y-96100741D01*
X125580376Y-96274812D01*
X125512456Y-96438784D01*
X125413853Y-96586354D01*
X125288354Y-96711853D01*
X125140784Y-96810456D01*
X124976812Y-96878376D01*
X124827512Y-96908073D01*
X124802742Y-96913000D01*
X124625258Y-96913000D01*
X124600488Y-96908073D01*
X124451188Y-96878376D01*
X124287216Y-96810456D01*
X124139646Y-96711853D01*
X124014147Y-96586354D01*
X123915544Y-96438784D01*
X123847624Y-96274812D01*
X123813000Y-96100741D01*
X123813000Y-95923259D01*
X123847624Y-95749188D01*
X123915544Y-95585216D01*
X124014147Y-95437646D01*
X124139646Y-95312147D01*
X124287216Y-95213544D01*
X124451188Y-95145624D01*
X124600488Y-95115927D01*
X124625258Y-95111000D01*
X124802742Y-95111000D01*
X124827512Y-95115927D01*
G37*
G36*
X122287512Y-95115927D02*
G01*
X122436812Y-95145624D01*
X122600784Y-95213544D01*
X122748354Y-95312147D01*
X122873853Y-95437646D01*
X122972456Y-95585216D01*
X123040376Y-95749188D01*
X123075000Y-95923259D01*
X123075000Y-96100741D01*
X123040376Y-96274812D01*
X122972456Y-96438784D01*
X122873853Y-96586354D01*
X122748354Y-96711853D01*
X122600784Y-96810456D01*
X122436812Y-96878376D01*
X122287512Y-96908073D01*
X122262742Y-96913000D01*
X122085258Y-96913000D01*
X122060488Y-96908073D01*
X121911188Y-96878376D01*
X121747216Y-96810456D01*
X121599646Y-96711853D01*
X121474147Y-96586354D01*
X121375544Y-96438784D01*
X121307624Y-96274812D01*
X121273000Y-96100741D01*
X121273000Y-95923259D01*
X121307624Y-95749188D01*
X121375544Y-95585216D01*
X121474147Y-95437646D01*
X121599646Y-95312147D01*
X121747216Y-95213544D01*
X121911188Y-95145624D01*
X122060488Y-95115927D01*
X122085258Y-95111000D01*
X122262742Y-95111000D01*
X122287512Y-95115927D01*
G37*
G36*
X118888228Y-92715703D02*
G01*
X119043100Y-92779853D01*
X119182481Y-92872985D01*
X119301015Y-92991519D01*
X119394147Y-93130900D01*
X119458297Y-93285772D01*
X119491000Y-93450184D01*
X119491000Y-93617816D01*
X119458297Y-93782228D01*
X119394147Y-93937100D01*
X119301015Y-94076481D01*
X119182481Y-94195015D01*
X119043100Y-94288147D01*
X118888228Y-94352297D01*
X118723816Y-94385000D01*
X118556184Y-94385000D01*
X118391772Y-94352297D01*
X118236900Y-94288147D01*
X118097519Y-94195015D01*
X117978985Y-94076481D01*
X117885853Y-93937100D01*
X117821703Y-93782228D01*
X117789000Y-93617816D01*
X117789000Y-93450184D01*
X117821703Y-93285772D01*
X117885853Y-93130900D01*
X117978985Y-92991519D01*
X118097519Y-92872985D01*
X118236900Y-92779853D01*
X118391772Y-92715703D01*
X118556184Y-92683000D01*
X118723816Y-92683000D01*
X118888228Y-92715703D01*
G37*
G36*
X111268228Y-92715703D02*
G01*
X111423100Y-92779853D01*
X111562481Y-92872985D01*
X111681015Y-92991519D01*
X111774147Y-93130900D01*
X111838297Y-93285772D01*
X111871000Y-93450184D01*
X111871000Y-93617816D01*
X111838297Y-93782228D01*
X111774147Y-93937100D01*
X111681015Y-94076481D01*
X111562481Y-94195015D01*
X111423100Y-94288147D01*
X111268228Y-94352297D01*
X111103816Y-94385000D01*
X110936184Y-94385000D01*
X110771772Y-94352297D01*
X110616900Y-94288147D01*
X110477519Y-94195015D01*
X110358985Y-94076481D01*
X110265853Y-93937100D01*
X110201703Y-93782228D01*
X110169000Y-93617816D01*
X110169000Y-93450184D01*
X110201703Y-93285772D01*
X110265853Y-93130900D01*
X110358985Y-92991519D01*
X110477519Y-92872985D01*
X110616900Y-92779853D01*
X110771772Y-92715703D01*
X110936184Y-92683000D01*
X111103816Y-92683000D01*
X111268228Y-92715703D01*
G37*
G36*
X124827512Y-92575927D02*
G01*
X124976812Y-92605624D01*
X125140784Y-92673544D01*
X125288354Y-92772147D01*
X125413853Y-92897646D01*
X125512456Y-93045216D01*
X125580376Y-93209188D01*
X125615000Y-93383259D01*
X125615000Y-93560741D01*
X125580376Y-93734812D01*
X125512456Y-93898784D01*
X125413853Y-94046354D01*
X125288354Y-94171853D01*
X125140784Y-94270456D01*
X124976812Y-94338376D01*
X124827512Y-94368073D01*
X124802742Y-94373000D01*
X124625258Y-94373000D01*
X124600488Y-94368073D01*
X124451188Y-94338376D01*
X124287216Y-94270456D01*
X124139646Y-94171853D01*
X124014147Y-94046354D01*
X123915544Y-93898784D01*
X123847624Y-93734812D01*
X123813000Y-93560741D01*
X123813000Y-93383259D01*
X123847624Y-93209188D01*
X123915544Y-93045216D01*
X124014147Y-92897646D01*
X124139646Y-92772147D01*
X124287216Y-92673544D01*
X124451188Y-92605624D01*
X124600488Y-92575927D01*
X124625258Y-92571000D01*
X124802742Y-92571000D01*
X124827512Y-92575927D01*
G37*
G36*
X122287512Y-92575927D02*
G01*
X122436812Y-92605624D01*
X122600784Y-92673544D01*
X122748354Y-92772147D01*
X122873853Y-92897646D01*
X122972456Y-93045216D01*
X123040376Y-93209188D01*
X123075000Y-93383259D01*
X123075000Y-93560741D01*
X123040376Y-93734812D01*
X122972456Y-93898784D01*
X122873853Y-94046354D01*
X122748354Y-94171853D01*
X122600784Y-94270456D01*
X122436812Y-94338376D01*
X122287512Y-94368073D01*
X122262742Y-94373000D01*
X122085258Y-94373000D01*
X122060488Y-94368073D01*
X121911188Y-94338376D01*
X121747216Y-94270456D01*
X121599646Y-94171853D01*
X121474147Y-94046354D01*
X121375544Y-93898784D01*
X121307624Y-93734812D01*
X121273000Y-93560741D01*
X121273000Y-93383259D01*
X121307624Y-93209188D01*
X121375544Y-93045216D01*
X121474147Y-92897646D01*
X121599646Y-92772147D01*
X121747216Y-92673544D01*
X121911188Y-92605624D01*
X122060488Y-92575927D01*
X122085258Y-92571000D01*
X122262742Y-92571000D01*
X122287512Y-92575927D01*
G37*
G36*
X108901000Y-91883000D02*
G01*
X106999000Y-91883000D01*
X106999000Y-89981000D01*
X108901000Y-89981000D01*
X108901000Y-91883000D01*
G37*
G36*
X105687395Y-90017546D02*
G01*
X105860466Y-90089234D01*
X105860467Y-90089235D01*
X106016227Y-90193310D01*
X106148690Y-90325773D01*
X106148691Y-90325775D01*
X106252766Y-90481534D01*
X106324454Y-90654605D01*
X106361000Y-90838333D01*
X106361000Y-91025667D01*
X106324454Y-91209395D01*
X106252766Y-91382466D01*
X106252765Y-91382467D01*
X106148690Y-91538227D01*
X106016227Y-91670690D01*
X105937818Y-91723081D01*
X105860466Y-91774766D01*
X105687395Y-91846454D01*
X105503667Y-91883000D01*
X105316333Y-91883000D01*
X105132605Y-91846454D01*
X104959534Y-91774766D01*
X104882182Y-91723081D01*
X104803773Y-91670690D01*
X104671310Y-91538227D01*
X104567235Y-91382467D01*
X104567234Y-91382466D01*
X104495546Y-91209395D01*
X104459000Y-91025667D01*
X104459000Y-90838333D01*
X104495546Y-90654605D01*
X104567234Y-90481534D01*
X104671309Y-90325775D01*
X104671310Y-90325773D01*
X104803773Y-90193310D01*
X104959533Y-90089235D01*
X104959534Y-90089234D01*
X105132605Y-90017546D01*
X105316333Y-89981000D01*
X105503667Y-89981000D01*
X105687395Y-90017546D01*
G37*
G36*
X118888228Y-90175703D02*
G01*
X119043100Y-90239853D01*
X119182481Y-90332985D01*
X119301015Y-90451519D01*
X119394147Y-90590900D01*
X119458297Y-90745772D01*
X119491000Y-90910184D01*
X119491000Y-91077816D01*
X119458297Y-91242228D01*
X119394147Y-91397100D01*
X119301015Y-91536481D01*
X119182481Y-91655015D01*
X119043100Y-91748147D01*
X118888228Y-91812297D01*
X118723816Y-91845000D01*
X118556184Y-91845000D01*
X118391772Y-91812297D01*
X118236900Y-91748147D01*
X118097519Y-91655015D01*
X117978985Y-91536481D01*
X117885853Y-91397100D01*
X117821703Y-91242228D01*
X117789000Y-91077816D01*
X117789000Y-90910184D01*
X117821703Y-90745772D01*
X117885853Y-90590900D01*
X117978985Y-90451519D01*
X118097519Y-90332985D01*
X118236900Y-90239853D01*
X118391772Y-90175703D01*
X118556184Y-90143000D01*
X118723816Y-90143000D01*
X118888228Y-90175703D01*
G37*
G36*
X111871000Y-91845000D02*
G01*
X110169000Y-91845000D01*
X110169000Y-90143000D01*
X111871000Y-90143000D01*
X111871000Y-91845000D01*
G37*
G36*
X124827512Y-90035927D02*
G01*
X124976812Y-90065624D01*
X125140784Y-90133544D01*
X125288354Y-90232147D01*
X125413853Y-90357646D01*
X125512456Y-90505216D01*
X125580376Y-90669188D01*
X125615000Y-90843259D01*
X125615000Y-91020741D01*
X125580376Y-91194812D01*
X125512456Y-91358784D01*
X125413853Y-91506354D01*
X125288354Y-91631853D01*
X125140784Y-91730456D01*
X124976812Y-91798376D01*
X124827512Y-91828073D01*
X124802742Y-91833000D01*
X124625258Y-91833000D01*
X124600488Y-91828073D01*
X124451188Y-91798376D01*
X124287216Y-91730456D01*
X124139646Y-91631853D01*
X124014147Y-91506354D01*
X123915544Y-91358784D01*
X123847624Y-91194812D01*
X123813000Y-91020741D01*
X123813000Y-90843259D01*
X123847624Y-90669188D01*
X123915544Y-90505216D01*
X124014147Y-90357646D01*
X124139646Y-90232147D01*
X124287216Y-90133544D01*
X124451188Y-90065624D01*
X124600488Y-90035927D01*
X124625258Y-90031000D01*
X124802742Y-90031000D01*
X124827512Y-90035927D01*
G37*
G36*
X123075000Y-91833000D02*
G01*
X121273000Y-91833000D01*
X121273000Y-90031000D01*
X123075000Y-90031000D01*
X123075000Y-91833000D01*
G37*
M02*
