M48
; DRILL file {KiCad (5.1.5)-3} date 2/15/2023 3:18:36 AM
; FORMAT={-:-/ absolute / inch / decimal}
; #@! TF.CreationDate,2023-02-15T03:18:36-08:00
; #@! TF.GenerationSoftware,Kicad,Pcbnew,(5.1.5)-3
; #@! TF.FileFunction,Plated,1,2,PTH
FMAT,2
INCH
T1C0.0157
T2C0.0276
T3C0.0315
T4C0.0354
T5C0.0394
%
G90
G05
T1
X4.72Y-4.03
T2
X4.15Y-3.75
X4.25Y-3.75
X4.15Y-3.89
X4.25Y-3.89
X4.49Y-3.99
X4.59Y-3.99
T3
X4.3709Y-3.5824
X4.3709Y-3.6824
X4.3709Y-3.7824
X4.3709Y-3.8824
X4.6709Y-3.5824
X4.6709Y-3.6824
X4.6709Y-3.7824
X4.6709Y-3.8824
T4
X4.14Y-4.1
X4.24Y-4.1
X4.15Y-3.58
X4.25Y-3.58
T5
X4.81Y-3.58
X4.81Y-3.68
X4.81Y-3.78
X4.81Y-3.88
X4.91Y-3.58
X4.91Y-3.68
X4.91Y-3.78
X4.91Y-3.88
X4.82Y-4.1
X4.92Y-4.1
T0
M30
