G04 #@! TF.GenerationSoftware,KiCad,Pcbnew,(5.1.5)-3*
G04 #@! TF.CreationDate,2023-02-14T15:50:30-08:00*
G04 #@! TF.ProjectId,LED_Strobe,4c45445f-5374-4726-9f62-652e6b696361,rev?*
G04 #@! TF.SameCoordinates,Original*
G04 #@! TF.FileFunction,Paste,Top*
G04 #@! TF.FilePolarity,Positive*
%FSLAX46Y46*%
G04 Gerber Fmt 4.6, Leading zero omitted, Abs format (unit mm)*
G04 Created by KiCad (PCBNEW (5.1.5)-3) date 2023-02-14 15:50:30*
%MOMM*%
%LPD*%
G04 APERTURE LIST*
%ADD10C,0.100000*%
G04 APERTURE END LIST*
D10*
G36*
X117198505Y-100647204D02*
G01*
X117222773Y-100650804D01*
X117246572Y-100656765D01*
X117269671Y-100665030D01*
X117291850Y-100675520D01*
X117312893Y-100688132D01*
X117332599Y-100702747D01*
X117350777Y-100719223D01*
X117367253Y-100737401D01*
X117381868Y-100757107D01*
X117394480Y-100778150D01*
X117404970Y-100800329D01*
X117413235Y-100823428D01*
X117419196Y-100847227D01*
X117422796Y-100871495D01*
X117424000Y-100895999D01*
X117424000Y-101796001D01*
X117422796Y-101820505D01*
X117419196Y-101844773D01*
X117413235Y-101868572D01*
X117404970Y-101891671D01*
X117394480Y-101913850D01*
X117381868Y-101934893D01*
X117367253Y-101954599D01*
X117350777Y-101972777D01*
X117332599Y-101989253D01*
X117312893Y-102003868D01*
X117291850Y-102016480D01*
X117269671Y-102026970D01*
X117246572Y-102035235D01*
X117222773Y-102041196D01*
X117198505Y-102044796D01*
X117174001Y-102046000D01*
X116523999Y-102046000D01*
X116499495Y-102044796D01*
X116475227Y-102041196D01*
X116451428Y-102035235D01*
X116428329Y-102026970D01*
X116406150Y-102016480D01*
X116385107Y-102003868D01*
X116365401Y-101989253D01*
X116347223Y-101972777D01*
X116330747Y-101954599D01*
X116316132Y-101934893D01*
X116303520Y-101913850D01*
X116293030Y-101891671D01*
X116284765Y-101868572D01*
X116278804Y-101844773D01*
X116275204Y-101820505D01*
X116274000Y-101796001D01*
X116274000Y-100895999D01*
X116275204Y-100871495D01*
X116278804Y-100847227D01*
X116284765Y-100823428D01*
X116293030Y-100800329D01*
X116303520Y-100778150D01*
X116316132Y-100757107D01*
X116330747Y-100737401D01*
X116347223Y-100719223D01*
X116365401Y-100702747D01*
X116385107Y-100688132D01*
X116406150Y-100675520D01*
X116428329Y-100665030D01*
X116451428Y-100656765D01*
X116475227Y-100650804D01*
X116499495Y-100647204D01*
X116523999Y-100646000D01*
X117174001Y-100646000D01*
X117198505Y-100647204D01*
G37*
G36*
X115148505Y-100647204D02*
G01*
X115172773Y-100650804D01*
X115196572Y-100656765D01*
X115219671Y-100665030D01*
X115241850Y-100675520D01*
X115262893Y-100688132D01*
X115282599Y-100702747D01*
X115300777Y-100719223D01*
X115317253Y-100737401D01*
X115331868Y-100757107D01*
X115344480Y-100778150D01*
X115354970Y-100800329D01*
X115363235Y-100823428D01*
X115369196Y-100847227D01*
X115372796Y-100871495D01*
X115374000Y-100895999D01*
X115374000Y-101796001D01*
X115372796Y-101820505D01*
X115369196Y-101844773D01*
X115363235Y-101868572D01*
X115354970Y-101891671D01*
X115344480Y-101913850D01*
X115331868Y-101934893D01*
X115317253Y-101954599D01*
X115300777Y-101972777D01*
X115282599Y-101989253D01*
X115262893Y-102003868D01*
X115241850Y-102016480D01*
X115219671Y-102026970D01*
X115196572Y-102035235D01*
X115172773Y-102041196D01*
X115148505Y-102044796D01*
X115124001Y-102046000D01*
X114473999Y-102046000D01*
X114449495Y-102044796D01*
X114425227Y-102041196D01*
X114401428Y-102035235D01*
X114378329Y-102026970D01*
X114356150Y-102016480D01*
X114335107Y-102003868D01*
X114315401Y-101989253D01*
X114297223Y-101972777D01*
X114280747Y-101954599D01*
X114266132Y-101934893D01*
X114253520Y-101913850D01*
X114243030Y-101891671D01*
X114234765Y-101868572D01*
X114228804Y-101844773D01*
X114225204Y-101820505D01*
X114224000Y-101796001D01*
X114224000Y-100895999D01*
X114225204Y-100871495D01*
X114228804Y-100847227D01*
X114234765Y-100823428D01*
X114243030Y-100800329D01*
X114253520Y-100778150D01*
X114266132Y-100757107D01*
X114280747Y-100737401D01*
X114297223Y-100719223D01*
X114315401Y-100702747D01*
X114335107Y-100688132D01*
X114356150Y-100675520D01*
X114378329Y-100665030D01*
X114401428Y-100656765D01*
X114425227Y-100650804D01*
X114449495Y-100647204D01*
X114473999Y-100646000D01*
X115124001Y-100646000D01*
X115148505Y-100647204D01*
G37*
G36*
X108054505Y-95059204D02*
G01*
X108078773Y-95062804D01*
X108102572Y-95068765D01*
X108125671Y-95077030D01*
X108147850Y-95087520D01*
X108168893Y-95100132D01*
X108188599Y-95114747D01*
X108206777Y-95131223D01*
X108223253Y-95149401D01*
X108237868Y-95169107D01*
X108250480Y-95190150D01*
X108260970Y-95212329D01*
X108269235Y-95235428D01*
X108275196Y-95259227D01*
X108278796Y-95283495D01*
X108280000Y-95307999D01*
X108280000Y-96208001D01*
X108278796Y-96232505D01*
X108275196Y-96256773D01*
X108269235Y-96280572D01*
X108260970Y-96303671D01*
X108250480Y-96325850D01*
X108237868Y-96346893D01*
X108223253Y-96366599D01*
X108206777Y-96384777D01*
X108188599Y-96401253D01*
X108168893Y-96415868D01*
X108147850Y-96428480D01*
X108125671Y-96438970D01*
X108102572Y-96447235D01*
X108078773Y-96453196D01*
X108054505Y-96456796D01*
X108030001Y-96458000D01*
X107379999Y-96458000D01*
X107355495Y-96456796D01*
X107331227Y-96453196D01*
X107307428Y-96447235D01*
X107284329Y-96438970D01*
X107262150Y-96428480D01*
X107241107Y-96415868D01*
X107221401Y-96401253D01*
X107203223Y-96384777D01*
X107186747Y-96366599D01*
X107172132Y-96346893D01*
X107159520Y-96325850D01*
X107149030Y-96303671D01*
X107140765Y-96280572D01*
X107134804Y-96256773D01*
X107131204Y-96232505D01*
X107130000Y-96208001D01*
X107130000Y-95307999D01*
X107131204Y-95283495D01*
X107134804Y-95259227D01*
X107140765Y-95235428D01*
X107149030Y-95212329D01*
X107159520Y-95190150D01*
X107172132Y-95169107D01*
X107186747Y-95149401D01*
X107203223Y-95131223D01*
X107221401Y-95114747D01*
X107241107Y-95100132D01*
X107262150Y-95087520D01*
X107284329Y-95077030D01*
X107307428Y-95068765D01*
X107331227Y-95062804D01*
X107355495Y-95059204D01*
X107379999Y-95058000D01*
X108030001Y-95058000D01*
X108054505Y-95059204D01*
G37*
G36*
X106004505Y-95059204D02*
G01*
X106028773Y-95062804D01*
X106052572Y-95068765D01*
X106075671Y-95077030D01*
X106097850Y-95087520D01*
X106118893Y-95100132D01*
X106138599Y-95114747D01*
X106156777Y-95131223D01*
X106173253Y-95149401D01*
X106187868Y-95169107D01*
X106200480Y-95190150D01*
X106210970Y-95212329D01*
X106219235Y-95235428D01*
X106225196Y-95259227D01*
X106228796Y-95283495D01*
X106230000Y-95307999D01*
X106230000Y-96208001D01*
X106228796Y-96232505D01*
X106225196Y-96256773D01*
X106219235Y-96280572D01*
X106210970Y-96303671D01*
X106200480Y-96325850D01*
X106187868Y-96346893D01*
X106173253Y-96366599D01*
X106156777Y-96384777D01*
X106138599Y-96401253D01*
X106118893Y-96415868D01*
X106097850Y-96428480D01*
X106075671Y-96438970D01*
X106052572Y-96447235D01*
X106028773Y-96453196D01*
X106004505Y-96456796D01*
X105980001Y-96458000D01*
X105329999Y-96458000D01*
X105305495Y-96456796D01*
X105281227Y-96453196D01*
X105257428Y-96447235D01*
X105234329Y-96438970D01*
X105212150Y-96428480D01*
X105191107Y-96415868D01*
X105171401Y-96401253D01*
X105153223Y-96384777D01*
X105136747Y-96366599D01*
X105122132Y-96346893D01*
X105109520Y-96325850D01*
X105099030Y-96303671D01*
X105090765Y-96280572D01*
X105084804Y-96256773D01*
X105081204Y-96232505D01*
X105080000Y-96208001D01*
X105080000Y-95307999D01*
X105081204Y-95283495D01*
X105084804Y-95259227D01*
X105090765Y-95235428D01*
X105099030Y-95212329D01*
X105109520Y-95190150D01*
X105122132Y-95169107D01*
X105136747Y-95149401D01*
X105153223Y-95131223D01*
X105171401Y-95114747D01*
X105191107Y-95100132D01*
X105212150Y-95087520D01*
X105234329Y-95077030D01*
X105257428Y-95068765D01*
X105281227Y-95062804D01*
X105305495Y-95059204D01*
X105329999Y-95058000D01*
X105980001Y-95058000D01*
X106004505Y-95059204D01*
G37*
G36*
X106013505Y-98869204D02*
G01*
X106037773Y-98872804D01*
X106061572Y-98878765D01*
X106084671Y-98887030D01*
X106106850Y-98897520D01*
X106127893Y-98910132D01*
X106147599Y-98924747D01*
X106165777Y-98941223D01*
X106182253Y-98959401D01*
X106196868Y-98979107D01*
X106209480Y-99000150D01*
X106219970Y-99022329D01*
X106228235Y-99045428D01*
X106234196Y-99069227D01*
X106237796Y-99093495D01*
X106239000Y-99117999D01*
X106239000Y-100018001D01*
X106237796Y-100042505D01*
X106234196Y-100066773D01*
X106228235Y-100090572D01*
X106219970Y-100113671D01*
X106209480Y-100135850D01*
X106196868Y-100156893D01*
X106182253Y-100176599D01*
X106165777Y-100194777D01*
X106147599Y-100211253D01*
X106127893Y-100225868D01*
X106106850Y-100238480D01*
X106084671Y-100248970D01*
X106061572Y-100257235D01*
X106037773Y-100263196D01*
X106013505Y-100266796D01*
X105989001Y-100268000D01*
X105338999Y-100268000D01*
X105314495Y-100266796D01*
X105290227Y-100263196D01*
X105266428Y-100257235D01*
X105243329Y-100248970D01*
X105221150Y-100238480D01*
X105200107Y-100225868D01*
X105180401Y-100211253D01*
X105162223Y-100194777D01*
X105145747Y-100176599D01*
X105131132Y-100156893D01*
X105118520Y-100135850D01*
X105108030Y-100113671D01*
X105099765Y-100090572D01*
X105093804Y-100066773D01*
X105090204Y-100042505D01*
X105089000Y-100018001D01*
X105089000Y-99117999D01*
X105090204Y-99093495D01*
X105093804Y-99069227D01*
X105099765Y-99045428D01*
X105108030Y-99022329D01*
X105118520Y-99000150D01*
X105131132Y-98979107D01*
X105145747Y-98959401D01*
X105162223Y-98941223D01*
X105180401Y-98924747D01*
X105200107Y-98910132D01*
X105221150Y-98897520D01*
X105243329Y-98887030D01*
X105266428Y-98878765D01*
X105290227Y-98872804D01*
X105314495Y-98869204D01*
X105338999Y-98868000D01*
X105989001Y-98868000D01*
X106013505Y-98869204D01*
G37*
G36*
X108063505Y-98869204D02*
G01*
X108087773Y-98872804D01*
X108111572Y-98878765D01*
X108134671Y-98887030D01*
X108156850Y-98897520D01*
X108177893Y-98910132D01*
X108197599Y-98924747D01*
X108215777Y-98941223D01*
X108232253Y-98959401D01*
X108246868Y-98979107D01*
X108259480Y-99000150D01*
X108269970Y-99022329D01*
X108278235Y-99045428D01*
X108284196Y-99069227D01*
X108287796Y-99093495D01*
X108289000Y-99117999D01*
X108289000Y-100018001D01*
X108287796Y-100042505D01*
X108284196Y-100066773D01*
X108278235Y-100090572D01*
X108269970Y-100113671D01*
X108259480Y-100135850D01*
X108246868Y-100156893D01*
X108232253Y-100176599D01*
X108215777Y-100194777D01*
X108197599Y-100211253D01*
X108177893Y-100225868D01*
X108156850Y-100238480D01*
X108134671Y-100248970D01*
X108111572Y-100257235D01*
X108087773Y-100263196D01*
X108063505Y-100266796D01*
X108039001Y-100268000D01*
X107388999Y-100268000D01*
X107364495Y-100266796D01*
X107340227Y-100263196D01*
X107316428Y-100257235D01*
X107293329Y-100248970D01*
X107271150Y-100238480D01*
X107250107Y-100225868D01*
X107230401Y-100211253D01*
X107212223Y-100194777D01*
X107195747Y-100176599D01*
X107181132Y-100156893D01*
X107168520Y-100135850D01*
X107158030Y-100113671D01*
X107149765Y-100090572D01*
X107143804Y-100066773D01*
X107140204Y-100042505D01*
X107139000Y-100018001D01*
X107139000Y-99117999D01*
X107140204Y-99093495D01*
X107143804Y-99069227D01*
X107149765Y-99045428D01*
X107158030Y-99022329D01*
X107168520Y-99000150D01*
X107181132Y-98979107D01*
X107195747Y-98959401D01*
X107212223Y-98941223D01*
X107230401Y-98924747D01*
X107250107Y-98910132D01*
X107271150Y-98897520D01*
X107293329Y-98887030D01*
X107316428Y-98878765D01*
X107340227Y-98872804D01*
X107364495Y-98869204D01*
X107388999Y-98868000D01*
X108039001Y-98868000D01*
X108063505Y-98869204D01*
G37*
M02*
