G04 #@! TF.GenerationSoftware,KiCad,Pcbnew,(5.1.5)-3*
G04 #@! TF.CreationDate,2023-02-14T15:50:31-08:00*
G04 #@! TF.ProjectId,LED_Strobe,4c45445f-5374-4726-9f62-652e6b696361,rev?*
G04 #@! TF.SameCoordinates,Original*
G04 #@! TF.FileFunction,Soldermask,Top*
G04 #@! TF.FilePolarity,Negative*
%FSLAX46Y46*%
G04 Gerber Fmt 4.6, Leading zero omitted, Abs format (unit mm)*
G04 Created by KiCad (PCBNEW (5.1.5)-3) date 2023-02-14 15:50:31*
%MOMM*%
%LPD*%
G04 APERTURE LIST*
%ADD10C,0.254000*%
%ADD11C,0.100000*%
G04 APERTURE END LIST*
D10*
X121786952Y-88718571D02*
X122561047Y-88718571D01*
X122174000Y-89105619D02*
X122174000Y-88331523D01*
D11*
G36*
X117715999Y-103593737D02*
G01*
X117725608Y-103596652D01*
X117734472Y-103601390D01*
X117742237Y-103607763D01*
X117752448Y-103620206D01*
X117759378Y-103630575D01*
X117776705Y-103647902D01*
X117797080Y-103661515D01*
X117819720Y-103670891D01*
X117843753Y-103675671D01*
X117868257Y-103675670D01*
X117892290Y-103670888D01*
X117914929Y-103661510D01*
X117935302Y-103647895D01*
X117952629Y-103630568D01*
X117959558Y-103620198D01*
X117969763Y-103607763D01*
X117977528Y-103601390D01*
X117986392Y-103596652D01*
X117996001Y-103593737D01*
X118012140Y-103592148D01*
X118499861Y-103592148D01*
X118518199Y-103593954D01*
X118530450Y-103594556D01*
X118548869Y-103594556D01*
X118571149Y-103596750D01*
X118655233Y-103613476D01*
X118676660Y-103619976D01*
X118755858Y-103652780D01*
X118761303Y-103655691D01*
X118761309Y-103655693D01*
X118770169Y-103660429D01*
X118770173Y-103660432D01*
X118775614Y-103663340D01*
X118846899Y-103710971D01*
X118864204Y-103725172D01*
X118924828Y-103785796D01*
X118939029Y-103803101D01*
X118986660Y-103874386D01*
X118989568Y-103879827D01*
X118989571Y-103879831D01*
X118994307Y-103888691D01*
X118994309Y-103888697D01*
X118997220Y-103894142D01*
X119030024Y-103973340D01*
X119036524Y-103994767D01*
X119053250Y-104078851D01*
X119055444Y-104101131D01*
X119055444Y-104119550D01*
X119056046Y-104131801D01*
X119057852Y-104150139D01*
X119057852Y-104637862D01*
X119056046Y-104656199D01*
X119055444Y-104668450D01*
X119055444Y-104686869D01*
X119053250Y-104709149D01*
X119036524Y-104793233D01*
X119030024Y-104814660D01*
X118997220Y-104893858D01*
X118994309Y-104899303D01*
X118994307Y-104899309D01*
X118989571Y-104908169D01*
X118989568Y-104908173D01*
X118986660Y-104913614D01*
X118939029Y-104984899D01*
X118924828Y-105002204D01*
X118864204Y-105062828D01*
X118846899Y-105077029D01*
X118775614Y-105124660D01*
X118770173Y-105127568D01*
X118770169Y-105127571D01*
X118761309Y-105132307D01*
X118761303Y-105132309D01*
X118755858Y-105135220D01*
X118676660Y-105168024D01*
X118655233Y-105174524D01*
X118571149Y-105191250D01*
X118548869Y-105193444D01*
X118530450Y-105193444D01*
X118518199Y-105194046D01*
X118499862Y-105195852D01*
X118012140Y-105195852D01*
X117996001Y-105194263D01*
X117986392Y-105191348D01*
X117977528Y-105186610D01*
X117969763Y-105180237D01*
X117959552Y-105167794D01*
X117952622Y-105157425D01*
X117935295Y-105140098D01*
X117914920Y-105126485D01*
X117892280Y-105117109D01*
X117868247Y-105112329D01*
X117843743Y-105112330D01*
X117819710Y-105117112D01*
X117797071Y-105126490D01*
X117776698Y-105140105D01*
X117759371Y-105157432D01*
X117752442Y-105167802D01*
X117742237Y-105180237D01*
X117734472Y-105186610D01*
X117725608Y-105191348D01*
X117715999Y-105194263D01*
X117699860Y-105195852D01*
X117212138Y-105195852D01*
X117193801Y-105194046D01*
X117181550Y-105193444D01*
X117163131Y-105193444D01*
X117140851Y-105191250D01*
X117056767Y-105174524D01*
X117035340Y-105168024D01*
X116956142Y-105135220D01*
X116950697Y-105132309D01*
X116950691Y-105132307D01*
X116941831Y-105127571D01*
X116941827Y-105127568D01*
X116936386Y-105124660D01*
X116865101Y-105077029D01*
X116847796Y-105062828D01*
X116787172Y-105002204D01*
X116772971Y-104984899D01*
X116725340Y-104913614D01*
X116722432Y-104908173D01*
X116722429Y-104908169D01*
X116717693Y-104899309D01*
X116717691Y-104899303D01*
X116714780Y-104893858D01*
X116681976Y-104814660D01*
X116675476Y-104793233D01*
X116658750Y-104709149D01*
X116656556Y-104686869D01*
X116656556Y-104668450D01*
X116655954Y-104656199D01*
X116654148Y-104637862D01*
X116654148Y-104150139D01*
X116655954Y-104131801D01*
X116656556Y-104119550D01*
X116656556Y-104101131D01*
X116658750Y-104078851D01*
X116675476Y-103994767D01*
X116681976Y-103973340D01*
X116714780Y-103894142D01*
X116717691Y-103888697D01*
X116717693Y-103888691D01*
X116722429Y-103879831D01*
X116722432Y-103879827D01*
X116725340Y-103874386D01*
X116772971Y-103803101D01*
X116787172Y-103785796D01*
X116847796Y-103725172D01*
X116865101Y-103710971D01*
X116936386Y-103663340D01*
X116941827Y-103660432D01*
X116941831Y-103660429D01*
X116950691Y-103655693D01*
X116950697Y-103655691D01*
X116956142Y-103652780D01*
X117035340Y-103619976D01*
X117056767Y-103613476D01*
X117140851Y-103596750D01*
X117163131Y-103594556D01*
X117181550Y-103594556D01*
X117193801Y-103593954D01*
X117212139Y-103592148D01*
X117699860Y-103592148D01*
X117715999Y-103593737D01*
G37*
G36*
X112127999Y-103593737D02*
G01*
X112137608Y-103596652D01*
X112146472Y-103601390D01*
X112154237Y-103607763D01*
X112164448Y-103620206D01*
X112171378Y-103630575D01*
X112188705Y-103647902D01*
X112209080Y-103661515D01*
X112231720Y-103670891D01*
X112255753Y-103675671D01*
X112280257Y-103675670D01*
X112304290Y-103670888D01*
X112326929Y-103661510D01*
X112347302Y-103647895D01*
X112364629Y-103630568D01*
X112371558Y-103620198D01*
X112381763Y-103607763D01*
X112389528Y-103601390D01*
X112398392Y-103596652D01*
X112408001Y-103593737D01*
X112424140Y-103592148D01*
X112911861Y-103592148D01*
X112930199Y-103593954D01*
X112942450Y-103594556D01*
X112960869Y-103594556D01*
X112983149Y-103596750D01*
X113067233Y-103613476D01*
X113088660Y-103619976D01*
X113167858Y-103652780D01*
X113173303Y-103655691D01*
X113173309Y-103655693D01*
X113182169Y-103660429D01*
X113182173Y-103660432D01*
X113187614Y-103663340D01*
X113258899Y-103710971D01*
X113276204Y-103725172D01*
X113336828Y-103785796D01*
X113351029Y-103803101D01*
X113398660Y-103874386D01*
X113401568Y-103879827D01*
X113401571Y-103879831D01*
X113406307Y-103888691D01*
X113406309Y-103888697D01*
X113409220Y-103894142D01*
X113442024Y-103973340D01*
X113448524Y-103994767D01*
X113465250Y-104078851D01*
X113467444Y-104101131D01*
X113467444Y-104119550D01*
X113468046Y-104131801D01*
X113469852Y-104150139D01*
X113469852Y-104637862D01*
X113468046Y-104656199D01*
X113467444Y-104668450D01*
X113467444Y-104686869D01*
X113465250Y-104709149D01*
X113448524Y-104793233D01*
X113442024Y-104814660D01*
X113409220Y-104893858D01*
X113406309Y-104899303D01*
X113406307Y-104899309D01*
X113401571Y-104908169D01*
X113401568Y-104908173D01*
X113398660Y-104913614D01*
X113351029Y-104984899D01*
X113336828Y-105002204D01*
X113276204Y-105062828D01*
X113258899Y-105077029D01*
X113187614Y-105124660D01*
X113182173Y-105127568D01*
X113182169Y-105127571D01*
X113173309Y-105132307D01*
X113173303Y-105132309D01*
X113167858Y-105135220D01*
X113088660Y-105168024D01*
X113067233Y-105174524D01*
X112983149Y-105191250D01*
X112960869Y-105193444D01*
X112942450Y-105193444D01*
X112930199Y-105194046D01*
X112911862Y-105195852D01*
X112424140Y-105195852D01*
X112408001Y-105194263D01*
X112398392Y-105191348D01*
X112389528Y-105186610D01*
X112381763Y-105180237D01*
X112371552Y-105167794D01*
X112364622Y-105157425D01*
X112347295Y-105140098D01*
X112326920Y-105126485D01*
X112304280Y-105117109D01*
X112280247Y-105112329D01*
X112255743Y-105112330D01*
X112231710Y-105117112D01*
X112209071Y-105126490D01*
X112188698Y-105140105D01*
X112171371Y-105157432D01*
X112164442Y-105167802D01*
X112154237Y-105180237D01*
X112146472Y-105186610D01*
X112137608Y-105191348D01*
X112127999Y-105194263D01*
X112111860Y-105195852D01*
X111624138Y-105195852D01*
X111605801Y-105194046D01*
X111593550Y-105193444D01*
X111575131Y-105193444D01*
X111552851Y-105191250D01*
X111468767Y-105174524D01*
X111447340Y-105168024D01*
X111368142Y-105135220D01*
X111362697Y-105132309D01*
X111362691Y-105132307D01*
X111353831Y-105127571D01*
X111353827Y-105127568D01*
X111348386Y-105124660D01*
X111277101Y-105077029D01*
X111259796Y-105062828D01*
X111199172Y-105002204D01*
X111184971Y-104984899D01*
X111137340Y-104913614D01*
X111134432Y-104908173D01*
X111134429Y-104908169D01*
X111129693Y-104899309D01*
X111129691Y-104899303D01*
X111126780Y-104893858D01*
X111093976Y-104814660D01*
X111087476Y-104793233D01*
X111070750Y-104709149D01*
X111068556Y-104686869D01*
X111068556Y-104668450D01*
X111067954Y-104656199D01*
X111066148Y-104637862D01*
X111066148Y-104150139D01*
X111067954Y-104131801D01*
X111068556Y-104119550D01*
X111068556Y-104101131D01*
X111070750Y-104078851D01*
X111087476Y-103994767D01*
X111093976Y-103973340D01*
X111126780Y-103894142D01*
X111129691Y-103888697D01*
X111129693Y-103888691D01*
X111134429Y-103879831D01*
X111134432Y-103879827D01*
X111137340Y-103874386D01*
X111184971Y-103803101D01*
X111199172Y-103785796D01*
X111259796Y-103725172D01*
X111277101Y-103710971D01*
X111348386Y-103663340D01*
X111353827Y-103660432D01*
X111353831Y-103660429D01*
X111362691Y-103655693D01*
X111362697Y-103655691D01*
X111368142Y-103652780D01*
X111447340Y-103619976D01*
X111468767Y-103613476D01*
X111552851Y-103596750D01*
X111575131Y-103594556D01*
X111593550Y-103594556D01*
X111605801Y-103593954D01*
X111624139Y-103592148D01*
X112111860Y-103592148D01*
X112127999Y-103593737D01*
G37*
G36*
X105433395Y-103225546D02*
G01*
X105606466Y-103297234D01*
X105606467Y-103297235D01*
X105762227Y-103401310D01*
X105894690Y-103533773D01*
X105936770Y-103596750D01*
X105998766Y-103689534D01*
X106070454Y-103862605D01*
X106107000Y-104046333D01*
X106107000Y-104233667D01*
X106070454Y-104417395D01*
X105998766Y-104590466D01*
X105953181Y-104658689D01*
X105894690Y-104746227D01*
X105762227Y-104878690D01*
X105739526Y-104893858D01*
X105606466Y-104982766D01*
X105433395Y-105054454D01*
X105249667Y-105091000D01*
X105062333Y-105091000D01*
X104878605Y-105054454D01*
X104705534Y-104982766D01*
X104572474Y-104893858D01*
X104549773Y-104878690D01*
X104417310Y-104746227D01*
X104358819Y-104658689D01*
X104313234Y-104590466D01*
X104241546Y-104417395D01*
X104205000Y-104233667D01*
X104205000Y-104046333D01*
X104241546Y-103862605D01*
X104313234Y-103689534D01*
X104375230Y-103596750D01*
X104417310Y-103533773D01*
X104549773Y-103401310D01*
X104705533Y-103297235D01*
X104705534Y-103297234D01*
X104878605Y-103225546D01*
X105062333Y-103189000D01*
X105249667Y-103189000D01*
X105433395Y-103225546D01*
G37*
G36*
X108647000Y-105091000D02*
G01*
X106745000Y-105091000D01*
X106745000Y-103189000D01*
X108647000Y-103189000D01*
X108647000Y-105091000D01*
G37*
G36*
X125081512Y-103243927D02*
G01*
X125230812Y-103273624D01*
X125394784Y-103341544D01*
X125542354Y-103440147D01*
X125667853Y-103565646D01*
X125766456Y-103713216D01*
X125834376Y-103877188D01*
X125869000Y-104051259D01*
X125869000Y-104228741D01*
X125834376Y-104402812D01*
X125766456Y-104566784D01*
X125667853Y-104714354D01*
X125542354Y-104839853D01*
X125394784Y-104938456D01*
X125230812Y-105006376D01*
X125081512Y-105036073D01*
X125056742Y-105041000D01*
X124879258Y-105041000D01*
X124854488Y-105036073D01*
X124705188Y-105006376D01*
X124541216Y-104938456D01*
X124393646Y-104839853D01*
X124268147Y-104714354D01*
X124169544Y-104566784D01*
X124101624Y-104402812D01*
X124067000Y-104228741D01*
X124067000Y-104051259D01*
X124101624Y-103877188D01*
X124169544Y-103713216D01*
X124268147Y-103565646D01*
X124393646Y-103440147D01*
X124541216Y-103341544D01*
X124705188Y-103273624D01*
X124854488Y-103243927D01*
X124879258Y-103239000D01*
X125056742Y-103239000D01*
X125081512Y-103243927D01*
G37*
G36*
X123329000Y-105041000D02*
G01*
X121527000Y-105041000D01*
X121527000Y-103239000D01*
X123329000Y-103239000D01*
X123329000Y-105041000D01*
G37*
G36*
X115262674Y-100599465D02*
G01*
X115300367Y-100610899D01*
X115335103Y-100629466D01*
X115365548Y-100654452D01*
X115390534Y-100684897D01*
X115409101Y-100719633D01*
X115420535Y-100757326D01*
X115425000Y-100802661D01*
X115425000Y-101889339D01*
X115420535Y-101934674D01*
X115409101Y-101972367D01*
X115390534Y-102007103D01*
X115365548Y-102037548D01*
X115335103Y-102062534D01*
X115300367Y-102081101D01*
X115262674Y-102092535D01*
X115217339Y-102097000D01*
X114380661Y-102097000D01*
X114335326Y-102092535D01*
X114297633Y-102081101D01*
X114262897Y-102062534D01*
X114232452Y-102037548D01*
X114207466Y-102007103D01*
X114188899Y-101972367D01*
X114177465Y-101934674D01*
X114173000Y-101889339D01*
X114173000Y-100802661D01*
X114177465Y-100757326D01*
X114188899Y-100719633D01*
X114207466Y-100684897D01*
X114232452Y-100654452D01*
X114262897Y-100629466D01*
X114297633Y-100610899D01*
X114335326Y-100599465D01*
X114380661Y-100595000D01*
X115217339Y-100595000D01*
X115262674Y-100599465D01*
G37*
G36*
X117312674Y-100599465D02*
G01*
X117350367Y-100610899D01*
X117385103Y-100629466D01*
X117415548Y-100654452D01*
X117440534Y-100684897D01*
X117459101Y-100719633D01*
X117470535Y-100757326D01*
X117475000Y-100802661D01*
X117475000Y-101889339D01*
X117470535Y-101934674D01*
X117459101Y-101972367D01*
X117440534Y-102007103D01*
X117415548Y-102037548D01*
X117385103Y-102062534D01*
X117350367Y-102081101D01*
X117312674Y-102092535D01*
X117267339Y-102097000D01*
X116430661Y-102097000D01*
X116385326Y-102092535D01*
X116347633Y-102081101D01*
X116312897Y-102062534D01*
X116282452Y-102037548D01*
X116257466Y-102007103D01*
X116238899Y-101972367D01*
X116227465Y-101934674D01*
X116223000Y-101889339D01*
X116223000Y-100802661D01*
X116227465Y-100757326D01*
X116238899Y-100719633D01*
X116257466Y-100684897D01*
X116282452Y-100654452D01*
X116312897Y-100629466D01*
X116347633Y-100610899D01*
X116385326Y-100599465D01*
X116430661Y-100595000D01*
X117267339Y-100595000D01*
X117312674Y-100599465D01*
G37*
G36*
X108177674Y-98821465D02*
G01*
X108215367Y-98832899D01*
X108250103Y-98851466D01*
X108280548Y-98876452D01*
X108305534Y-98906897D01*
X108324101Y-98941633D01*
X108335535Y-98979326D01*
X108340000Y-99024661D01*
X108340000Y-100111339D01*
X108335535Y-100156674D01*
X108324101Y-100194367D01*
X108305534Y-100229103D01*
X108280548Y-100259548D01*
X108250103Y-100284534D01*
X108215367Y-100303101D01*
X108177674Y-100314535D01*
X108132339Y-100319000D01*
X107295661Y-100319000D01*
X107250326Y-100314535D01*
X107212633Y-100303101D01*
X107177897Y-100284534D01*
X107147452Y-100259548D01*
X107122466Y-100229103D01*
X107103899Y-100194367D01*
X107092465Y-100156674D01*
X107088000Y-100111339D01*
X107088000Y-99024661D01*
X107092465Y-98979326D01*
X107103899Y-98941633D01*
X107122466Y-98906897D01*
X107147452Y-98876452D01*
X107177897Y-98851466D01*
X107212633Y-98832899D01*
X107250326Y-98821465D01*
X107295661Y-98817000D01*
X108132339Y-98817000D01*
X108177674Y-98821465D01*
G37*
G36*
X106127674Y-98821465D02*
G01*
X106165367Y-98832899D01*
X106200103Y-98851466D01*
X106230548Y-98876452D01*
X106255534Y-98906897D01*
X106274101Y-98941633D01*
X106285535Y-98979326D01*
X106290000Y-99024661D01*
X106290000Y-100111339D01*
X106285535Y-100156674D01*
X106274101Y-100194367D01*
X106255534Y-100229103D01*
X106230548Y-100259548D01*
X106200103Y-100284534D01*
X106165367Y-100303101D01*
X106127674Y-100314535D01*
X106082339Y-100319000D01*
X105245661Y-100319000D01*
X105200326Y-100314535D01*
X105162633Y-100303101D01*
X105127897Y-100284534D01*
X105097452Y-100259548D01*
X105072466Y-100229103D01*
X105053899Y-100194367D01*
X105042465Y-100156674D01*
X105038000Y-100111339D01*
X105038000Y-99024661D01*
X105042465Y-98979326D01*
X105053899Y-98941633D01*
X105072466Y-98906897D01*
X105097452Y-98876452D01*
X105127897Y-98851466D01*
X105162633Y-98832899D01*
X105200326Y-98821465D01*
X105245661Y-98817000D01*
X106082339Y-98817000D01*
X106127674Y-98821465D01*
G37*
G36*
X111268228Y-97795703D02*
G01*
X111423100Y-97859853D01*
X111562481Y-97952985D01*
X111681015Y-98071519D01*
X111774147Y-98210900D01*
X111838297Y-98365772D01*
X111871000Y-98530184D01*
X111871000Y-98697816D01*
X111838297Y-98862228D01*
X111774147Y-99017100D01*
X111681015Y-99156481D01*
X111562481Y-99275015D01*
X111423100Y-99368147D01*
X111268228Y-99432297D01*
X111103816Y-99465000D01*
X110936184Y-99465000D01*
X110771772Y-99432297D01*
X110616900Y-99368147D01*
X110477519Y-99275015D01*
X110358985Y-99156481D01*
X110265853Y-99017100D01*
X110201703Y-98862228D01*
X110169000Y-98697816D01*
X110169000Y-98530184D01*
X110201703Y-98365772D01*
X110265853Y-98210900D01*
X110358985Y-98071519D01*
X110477519Y-97952985D01*
X110616900Y-97859853D01*
X110771772Y-97795703D01*
X110936184Y-97763000D01*
X111103816Y-97763000D01*
X111268228Y-97795703D01*
G37*
G36*
X118888228Y-97795703D02*
G01*
X119043100Y-97859853D01*
X119182481Y-97952985D01*
X119301015Y-98071519D01*
X119394147Y-98210900D01*
X119458297Y-98365772D01*
X119491000Y-98530184D01*
X119491000Y-98697816D01*
X119458297Y-98862228D01*
X119394147Y-99017100D01*
X119301015Y-99156481D01*
X119182481Y-99275015D01*
X119043100Y-99368147D01*
X118888228Y-99432297D01*
X118723816Y-99465000D01*
X118556184Y-99465000D01*
X118391772Y-99432297D01*
X118236900Y-99368147D01*
X118097519Y-99275015D01*
X117978985Y-99156481D01*
X117885853Y-99017100D01*
X117821703Y-98862228D01*
X117789000Y-98697816D01*
X117789000Y-98530184D01*
X117821703Y-98365772D01*
X117885853Y-98210900D01*
X117978985Y-98071519D01*
X118097519Y-97952985D01*
X118236900Y-97859853D01*
X118391772Y-97795703D01*
X118556184Y-97763000D01*
X118723816Y-97763000D01*
X118888228Y-97795703D01*
G37*
G36*
X122287512Y-97655927D02*
G01*
X122436812Y-97685624D01*
X122600784Y-97753544D01*
X122748354Y-97852147D01*
X122873853Y-97977646D01*
X122972456Y-98125216D01*
X123040376Y-98289188D01*
X123075000Y-98463259D01*
X123075000Y-98640741D01*
X123040376Y-98814812D01*
X122972456Y-98978784D01*
X122873853Y-99126354D01*
X122748354Y-99251853D01*
X122600784Y-99350456D01*
X122436812Y-99418376D01*
X122287512Y-99448073D01*
X122262742Y-99453000D01*
X122085258Y-99453000D01*
X122060488Y-99448073D01*
X121911188Y-99418376D01*
X121747216Y-99350456D01*
X121599646Y-99251853D01*
X121474147Y-99126354D01*
X121375544Y-98978784D01*
X121307624Y-98814812D01*
X121273000Y-98640741D01*
X121273000Y-98463259D01*
X121307624Y-98289188D01*
X121375544Y-98125216D01*
X121474147Y-97977646D01*
X121599646Y-97852147D01*
X121747216Y-97753544D01*
X121911188Y-97685624D01*
X122060488Y-97655927D01*
X122085258Y-97651000D01*
X122262742Y-97651000D01*
X122287512Y-97655927D01*
G37*
G36*
X124827512Y-97655927D02*
G01*
X124976812Y-97685624D01*
X125140784Y-97753544D01*
X125288354Y-97852147D01*
X125413853Y-97977646D01*
X125512456Y-98125216D01*
X125580376Y-98289188D01*
X125615000Y-98463259D01*
X125615000Y-98640741D01*
X125580376Y-98814812D01*
X125512456Y-98978784D01*
X125413853Y-99126354D01*
X125288354Y-99251853D01*
X125140784Y-99350456D01*
X124976812Y-99418376D01*
X124827512Y-99448073D01*
X124802742Y-99453000D01*
X124625258Y-99453000D01*
X124600488Y-99448073D01*
X124451188Y-99418376D01*
X124287216Y-99350456D01*
X124139646Y-99251853D01*
X124014147Y-99126354D01*
X123915544Y-98978784D01*
X123847624Y-98814812D01*
X123813000Y-98640741D01*
X123813000Y-98463259D01*
X123847624Y-98289188D01*
X123915544Y-98125216D01*
X124014147Y-97977646D01*
X124139646Y-97852147D01*
X124287216Y-97753544D01*
X124451188Y-97685624D01*
X124600488Y-97655927D01*
X124625258Y-97651000D01*
X124802742Y-97651000D01*
X124827512Y-97655927D01*
G37*
G36*
X111268228Y-95255703D02*
G01*
X111423100Y-95319853D01*
X111562481Y-95412985D01*
X111681015Y-95531519D01*
X111774147Y-95670900D01*
X111838297Y-95825772D01*
X111871000Y-95990184D01*
X111871000Y-96157816D01*
X111838297Y-96322228D01*
X111774147Y-96477100D01*
X111681015Y-96616481D01*
X111562481Y-96735015D01*
X111423100Y-96828147D01*
X111268228Y-96892297D01*
X111103816Y-96925000D01*
X110936184Y-96925000D01*
X110771772Y-96892297D01*
X110616900Y-96828147D01*
X110477519Y-96735015D01*
X110358985Y-96616481D01*
X110265853Y-96477100D01*
X110201703Y-96322228D01*
X110169000Y-96157816D01*
X110169000Y-95990184D01*
X110201703Y-95825772D01*
X110265853Y-95670900D01*
X110358985Y-95531519D01*
X110477519Y-95412985D01*
X110616900Y-95319853D01*
X110771772Y-95255703D01*
X110936184Y-95223000D01*
X111103816Y-95223000D01*
X111268228Y-95255703D01*
G37*
G36*
X118888228Y-95255703D02*
G01*
X119043100Y-95319853D01*
X119182481Y-95412985D01*
X119301015Y-95531519D01*
X119394147Y-95670900D01*
X119458297Y-95825772D01*
X119491000Y-95990184D01*
X119491000Y-96157816D01*
X119458297Y-96322228D01*
X119394147Y-96477100D01*
X119301015Y-96616481D01*
X119182481Y-96735015D01*
X119043100Y-96828147D01*
X118888228Y-96892297D01*
X118723816Y-96925000D01*
X118556184Y-96925000D01*
X118391772Y-96892297D01*
X118236900Y-96828147D01*
X118097519Y-96735015D01*
X117978985Y-96616481D01*
X117885853Y-96477100D01*
X117821703Y-96322228D01*
X117789000Y-96157816D01*
X117789000Y-95990184D01*
X117821703Y-95825772D01*
X117885853Y-95670900D01*
X117978985Y-95531519D01*
X118097519Y-95412985D01*
X118236900Y-95319853D01*
X118391772Y-95255703D01*
X118556184Y-95223000D01*
X118723816Y-95223000D01*
X118888228Y-95255703D01*
G37*
G36*
X124827512Y-95115927D02*
G01*
X124976812Y-95145624D01*
X125140784Y-95213544D01*
X125288354Y-95312147D01*
X125413853Y-95437646D01*
X125512456Y-95585216D01*
X125580376Y-95749188D01*
X125615000Y-95923259D01*
X125615000Y-96100741D01*
X125580376Y-96274812D01*
X125512456Y-96438784D01*
X125413853Y-96586354D01*
X125288354Y-96711853D01*
X125140784Y-96810456D01*
X124976812Y-96878376D01*
X124827512Y-96908073D01*
X124802742Y-96913000D01*
X124625258Y-96913000D01*
X124600488Y-96908073D01*
X124451188Y-96878376D01*
X124287216Y-96810456D01*
X124139646Y-96711853D01*
X124014147Y-96586354D01*
X123915544Y-96438784D01*
X123847624Y-96274812D01*
X123813000Y-96100741D01*
X123813000Y-95923259D01*
X123847624Y-95749188D01*
X123915544Y-95585216D01*
X124014147Y-95437646D01*
X124139646Y-95312147D01*
X124287216Y-95213544D01*
X124451188Y-95145624D01*
X124600488Y-95115927D01*
X124625258Y-95111000D01*
X124802742Y-95111000D01*
X124827512Y-95115927D01*
G37*
G36*
X122287512Y-95115927D02*
G01*
X122436812Y-95145624D01*
X122600784Y-95213544D01*
X122748354Y-95312147D01*
X122873853Y-95437646D01*
X122972456Y-95585216D01*
X123040376Y-95749188D01*
X123075000Y-95923259D01*
X123075000Y-96100741D01*
X123040376Y-96274812D01*
X122972456Y-96438784D01*
X122873853Y-96586354D01*
X122748354Y-96711853D01*
X122600784Y-96810456D01*
X122436812Y-96878376D01*
X122287512Y-96908073D01*
X122262742Y-96913000D01*
X122085258Y-96913000D01*
X122060488Y-96908073D01*
X121911188Y-96878376D01*
X121747216Y-96810456D01*
X121599646Y-96711853D01*
X121474147Y-96586354D01*
X121375544Y-96438784D01*
X121307624Y-96274812D01*
X121273000Y-96100741D01*
X121273000Y-95923259D01*
X121307624Y-95749188D01*
X121375544Y-95585216D01*
X121474147Y-95437646D01*
X121599646Y-95312147D01*
X121747216Y-95213544D01*
X121911188Y-95145624D01*
X122060488Y-95115927D01*
X122085258Y-95111000D01*
X122262742Y-95111000D01*
X122287512Y-95115927D01*
G37*
G36*
X108168674Y-95011465D02*
G01*
X108206367Y-95022899D01*
X108241103Y-95041466D01*
X108271548Y-95066452D01*
X108296534Y-95096897D01*
X108315101Y-95131633D01*
X108326535Y-95169326D01*
X108331000Y-95214661D01*
X108331000Y-96301339D01*
X108326535Y-96346674D01*
X108315101Y-96384367D01*
X108296534Y-96419103D01*
X108271548Y-96449548D01*
X108241103Y-96474534D01*
X108206367Y-96493101D01*
X108168674Y-96504535D01*
X108123339Y-96509000D01*
X107286661Y-96509000D01*
X107241326Y-96504535D01*
X107203633Y-96493101D01*
X107168897Y-96474534D01*
X107138452Y-96449548D01*
X107113466Y-96419103D01*
X107094899Y-96384367D01*
X107083465Y-96346674D01*
X107079000Y-96301339D01*
X107079000Y-95214661D01*
X107083465Y-95169326D01*
X107094899Y-95131633D01*
X107113466Y-95096897D01*
X107138452Y-95066452D01*
X107168897Y-95041466D01*
X107203633Y-95022899D01*
X107241326Y-95011465D01*
X107286661Y-95007000D01*
X108123339Y-95007000D01*
X108168674Y-95011465D01*
G37*
G36*
X106118674Y-95011465D02*
G01*
X106156367Y-95022899D01*
X106191103Y-95041466D01*
X106221548Y-95066452D01*
X106246534Y-95096897D01*
X106265101Y-95131633D01*
X106276535Y-95169326D01*
X106281000Y-95214661D01*
X106281000Y-96301339D01*
X106276535Y-96346674D01*
X106265101Y-96384367D01*
X106246534Y-96419103D01*
X106221548Y-96449548D01*
X106191103Y-96474534D01*
X106156367Y-96493101D01*
X106118674Y-96504535D01*
X106073339Y-96509000D01*
X105236661Y-96509000D01*
X105191326Y-96504535D01*
X105153633Y-96493101D01*
X105118897Y-96474534D01*
X105088452Y-96449548D01*
X105063466Y-96419103D01*
X105044899Y-96384367D01*
X105033465Y-96346674D01*
X105029000Y-96301339D01*
X105029000Y-95214661D01*
X105033465Y-95169326D01*
X105044899Y-95131633D01*
X105063466Y-95096897D01*
X105088452Y-95066452D01*
X105118897Y-95041466D01*
X105153633Y-95022899D01*
X105191326Y-95011465D01*
X105236661Y-95007000D01*
X106073339Y-95007000D01*
X106118674Y-95011465D01*
G37*
G36*
X111268228Y-92715703D02*
G01*
X111423100Y-92779853D01*
X111562481Y-92872985D01*
X111681015Y-92991519D01*
X111774147Y-93130900D01*
X111838297Y-93285772D01*
X111871000Y-93450184D01*
X111871000Y-93617816D01*
X111838297Y-93782228D01*
X111774147Y-93937100D01*
X111681015Y-94076481D01*
X111562481Y-94195015D01*
X111423100Y-94288147D01*
X111268228Y-94352297D01*
X111103816Y-94385000D01*
X110936184Y-94385000D01*
X110771772Y-94352297D01*
X110616900Y-94288147D01*
X110477519Y-94195015D01*
X110358985Y-94076481D01*
X110265853Y-93937100D01*
X110201703Y-93782228D01*
X110169000Y-93617816D01*
X110169000Y-93450184D01*
X110201703Y-93285772D01*
X110265853Y-93130900D01*
X110358985Y-92991519D01*
X110477519Y-92872985D01*
X110616900Y-92779853D01*
X110771772Y-92715703D01*
X110936184Y-92683000D01*
X111103816Y-92683000D01*
X111268228Y-92715703D01*
G37*
G36*
X118888228Y-92715703D02*
G01*
X119043100Y-92779853D01*
X119182481Y-92872985D01*
X119301015Y-92991519D01*
X119394147Y-93130900D01*
X119458297Y-93285772D01*
X119491000Y-93450184D01*
X119491000Y-93617816D01*
X119458297Y-93782228D01*
X119394147Y-93937100D01*
X119301015Y-94076481D01*
X119182481Y-94195015D01*
X119043100Y-94288147D01*
X118888228Y-94352297D01*
X118723816Y-94385000D01*
X118556184Y-94385000D01*
X118391772Y-94352297D01*
X118236900Y-94288147D01*
X118097519Y-94195015D01*
X117978985Y-94076481D01*
X117885853Y-93937100D01*
X117821703Y-93782228D01*
X117789000Y-93617816D01*
X117789000Y-93450184D01*
X117821703Y-93285772D01*
X117885853Y-93130900D01*
X117978985Y-92991519D01*
X118097519Y-92872985D01*
X118236900Y-92779853D01*
X118391772Y-92715703D01*
X118556184Y-92683000D01*
X118723816Y-92683000D01*
X118888228Y-92715703D01*
G37*
G36*
X124827512Y-92575927D02*
G01*
X124976812Y-92605624D01*
X125140784Y-92673544D01*
X125288354Y-92772147D01*
X125413853Y-92897646D01*
X125512456Y-93045216D01*
X125580376Y-93209188D01*
X125615000Y-93383259D01*
X125615000Y-93560741D01*
X125580376Y-93734812D01*
X125512456Y-93898784D01*
X125413853Y-94046354D01*
X125288354Y-94171853D01*
X125140784Y-94270456D01*
X124976812Y-94338376D01*
X124827512Y-94368073D01*
X124802742Y-94373000D01*
X124625258Y-94373000D01*
X124600488Y-94368073D01*
X124451188Y-94338376D01*
X124287216Y-94270456D01*
X124139646Y-94171853D01*
X124014147Y-94046354D01*
X123915544Y-93898784D01*
X123847624Y-93734812D01*
X123813000Y-93560741D01*
X123813000Y-93383259D01*
X123847624Y-93209188D01*
X123915544Y-93045216D01*
X124014147Y-92897646D01*
X124139646Y-92772147D01*
X124287216Y-92673544D01*
X124451188Y-92605624D01*
X124600488Y-92575927D01*
X124625258Y-92571000D01*
X124802742Y-92571000D01*
X124827512Y-92575927D01*
G37*
G36*
X122287512Y-92575927D02*
G01*
X122436812Y-92605624D01*
X122600784Y-92673544D01*
X122748354Y-92772147D01*
X122873853Y-92897646D01*
X122972456Y-93045216D01*
X123040376Y-93209188D01*
X123075000Y-93383259D01*
X123075000Y-93560741D01*
X123040376Y-93734812D01*
X122972456Y-93898784D01*
X122873853Y-94046354D01*
X122748354Y-94171853D01*
X122600784Y-94270456D01*
X122436812Y-94338376D01*
X122287512Y-94368073D01*
X122262742Y-94373000D01*
X122085258Y-94373000D01*
X122060488Y-94368073D01*
X121911188Y-94338376D01*
X121747216Y-94270456D01*
X121599646Y-94171853D01*
X121474147Y-94046354D01*
X121375544Y-93898784D01*
X121307624Y-93734812D01*
X121273000Y-93560741D01*
X121273000Y-93383259D01*
X121307624Y-93209188D01*
X121375544Y-93045216D01*
X121474147Y-92897646D01*
X121599646Y-92772147D01*
X121747216Y-92673544D01*
X121911188Y-92605624D01*
X122060488Y-92575927D01*
X122085258Y-92571000D01*
X122262742Y-92571000D01*
X122287512Y-92575927D01*
G37*
G36*
X105687395Y-90017546D02*
G01*
X105860466Y-90089234D01*
X105860467Y-90089235D01*
X106016227Y-90193310D01*
X106148690Y-90325773D01*
X106148691Y-90325775D01*
X106252766Y-90481534D01*
X106324454Y-90654605D01*
X106361000Y-90838333D01*
X106361000Y-91025667D01*
X106324454Y-91209395D01*
X106252766Y-91382466D01*
X106252765Y-91382467D01*
X106148690Y-91538227D01*
X106016227Y-91670690D01*
X105937818Y-91723081D01*
X105860466Y-91774766D01*
X105687395Y-91846454D01*
X105503667Y-91883000D01*
X105316333Y-91883000D01*
X105132605Y-91846454D01*
X104959534Y-91774766D01*
X104882182Y-91723081D01*
X104803773Y-91670690D01*
X104671310Y-91538227D01*
X104567235Y-91382467D01*
X104567234Y-91382466D01*
X104495546Y-91209395D01*
X104459000Y-91025667D01*
X104459000Y-90838333D01*
X104495546Y-90654605D01*
X104567234Y-90481534D01*
X104671309Y-90325775D01*
X104671310Y-90325773D01*
X104803773Y-90193310D01*
X104959533Y-90089235D01*
X104959534Y-90089234D01*
X105132605Y-90017546D01*
X105316333Y-89981000D01*
X105503667Y-89981000D01*
X105687395Y-90017546D01*
G37*
G36*
X108901000Y-91883000D02*
G01*
X106999000Y-91883000D01*
X106999000Y-89981000D01*
X108901000Y-89981000D01*
X108901000Y-91883000D01*
G37*
G36*
X118888228Y-90175703D02*
G01*
X119043100Y-90239853D01*
X119182481Y-90332985D01*
X119301015Y-90451519D01*
X119394147Y-90590900D01*
X119458297Y-90745772D01*
X119491000Y-90910184D01*
X119491000Y-91077816D01*
X119458297Y-91242228D01*
X119394147Y-91397100D01*
X119301015Y-91536481D01*
X119182481Y-91655015D01*
X119043100Y-91748147D01*
X118888228Y-91812297D01*
X118723816Y-91845000D01*
X118556184Y-91845000D01*
X118391772Y-91812297D01*
X118236900Y-91748147D01*
X118097519Y-91655015D01*
X117978985Y-91536481D01*
X117885853Y-91397100D01*
X117821703Y-91242228D01*
X117789000Y-91077816D01*
X117789000Y-90910184D01*
X117821703Y-90745772D01*
X117885853Y-90590900D01*
X117978985Y-90451519D01*
X118097519Y-90332985D01*
X118236900Y-90239853D01*
X118391772Y-90175703D01*
X118556184Y-90143000D01*
X118723816Y-90143000D01*
X118888228Y-90175703D01*
G37*
G36*
X111871000Y-91845000D02*
G01*
X110169000Y-91845000D01*
X110169000Y-90143000D01*
X111871000Y-90143000D01*
X111871000Y-91845000D01*
G37*
G36*
X124827512Y-90035927D02*
G01*
X124976812Y-90065624D01*
X125140784Y-90133544D01*
X125288354Y-90232147D01*
X125413853Y-90357646D01*
X125512456Y-90505216D01*
X125580376Y-90669188D01*
X125615000Y-90843259D01*
X125615000Y-91020741D01*
X125580376Y-91194812D01*
X125512456Y-91358784D01*
X125413853Y-91506354D01*
X125288354Y-91631853D01*
X125140784Y-91730456D01*
X124976812Y-91798376D01*
X124827512Y-91828073D01*
X124802742Y-91833000D01*
X124625258Y-91833000D01*
X124600488Y-91828073D01*
X124451188Y-91798376D01*
X124287216Y-91730456D01*
X124139646Y-91631853D01*
X124014147Y-91506354D01*
X123915544Y-91358784D01*
X123847624Y-91194812D01*
X123813000Y-91020741D01*
X123813000Y-90843259D01*
X123847624Y-90669188D01*
X123915544Y-90505216D01*
X124014147Y-90357646D01*
X124139646Y-90232147D01*
X124287216Y-90133544D01*
X124451188Y-90065624D01*
X124600488Y-90035927D01*
X124625258Y-90031000D01*
X124802742Y-90031000D01*
X124827512Y-90035927D01*
G37*
G36*
X123075000Y-91833000D02*
G01*
X121273000Y-91833000D01*
X121273000Y-90031000D01*
X123075000Y-90031000D01*
X123075000Y-91833000D01*
G37*
M02*
