G04 #@! TF.GenerationSoftware,KiCad,Pcbnew,(5.1.5)-3*
G04 #@! TF.CreationDate,2023-02-14T15:50:30-08:00*
G04 #@! TF.ProjectId,LED_Strobe,4c45445f-5374-4726-9f62-652e6b696361,rev?*
G04 #@! TF.SameCoordinates,Original*
G04 #@! TF.FileFunction,Copper,L1,Top*
G04 #@! TF.FilePolarity,Positive*
%FSLAX46Y46*%
G04 Gerber Fmt 4.6, Leading zero omitted, Abs format (unit mm)*
G04 Created by KiCad (PCBNEW (5.1.5)-3) date 2023-02-14 15:50:30*
%MOMM*%
%LPD*%
G04 APERTURE LIST*
%ADD10C,0.254000*%
%ADD11O,1.700000X1.700000*%
%ADD12R,1.700000X1.700000*%
%ADD13C,0.100000*%
%ADD14O,1.600000X1.600000*%
%ADD15R,1.600000X1.600000*%
%ADD16C,1.800000*%
%ADD17R,1.800000X1.800000*%
%ADD18C,0.800000*%
%ADD19C,0.250000*%
G04 APERTURE END LIST*
D10*
X121786952Y-88718571D02*
X122561047Y-88718571D01*
X122174000Y-89105619D02*
X122174000Y-88331523D01*
D11*
X124714000Y-98552000D03*
X122174000Y-98552000D03*
X124714000Y-96012000D03*
X122174000Y-96012000D03*
X124714000Y-93472000D03*
X122174000Y-93472000D03*
X124714000Y-90932000D03*
D12*
X122174000Y-90932000D03*
G04 #@! TA.AperFunction,SMDPad,CuDef*
D13*
G36*
X117198505Y-100647204D02*
G01*
X117222773Y-100650804D01*
X117246572Y-100656765D01*
X117269671Y-100665030D01*
X117291850Y-100675520D01*
X117312893Y-100688132D01*
X117332599Y-100702747D01*
X117350777Y-100719223D01*
X117367253Y-100737401D01*
X117381868Y-100757107D01*
X117394480Y-100778150D01*
X117404970Y-100800329D01*
X117413235Y-100823428D01*
X117419196Y-100847227D01*
X117422796Y-100871495D01*
X117424000Y-100895999D01*
X117424000Y-101796001D01*
X117422796Y-101820505D01*
X117419196Y-101844773D01*
X117413235Y-101868572D01*
X117404970Y-101891671D01*
X117394480Y-101913850D01*
X117381868Y-101934893D01*
X117367253Y-101954599D01*
X117350777Y-101972777D01*
X117332599Y-101989253D01*
X117312893Y-102003868D01*
X117291850Y-102016480D01*
X117269671Y-102026970D01*
X117246572Y-102035235D01*
X117222773Y-102041196D01*
X117198505Y-102044796D01*
X117174001Y-102046000D01*
X116523999Y-102046000D01*
X116499495Y-102044796D01*
X116475227Y-102041196D01*
X116451428Y-102035235D01*
X116428329Y-102026970D01*
X116406150Y-102016480D01*
X116385107Y-102003868D01*
X116365401Y-101989253D01*
X116347223Y-101972777D01*
X116330747Y-101954599D01*
X116316132Y-101934893D01*
X116303520Y-101913850D01*
X116293030Y-101891671D01*
X116284765Y-101868572D01*
X116278804Y-101844773D01*
X116275204Y-101820505D01*
X116274000Y-101796001D01*
X116274000Y-100895999D01*
X116275204Y-100871495D01*
X116278804Y-100847227D01*
X116284765Y-100823428D01*
X116293030Y-100800329D01*
X116303520Y-100778150D01*
X116316132Y-100757107D01*
X116330747Y-100737401D01*
X116347223Y-100719223D01*
X116365401Y-100702747D01*
X116385107Y-100688132D01*
X116406150Y-100675520D01*
X116428329Y-100665030D01*
X116451428Y-100656765D01*
X116475227Y-100650804D01*
X116499495Y-100647204D01*
X116523999Y-100646000D01*
X117174001Y-100646000D01*
X117198505Y-100647204D01*
G37*
G04 #@! TD.AperFunction*
G04 #@! TA.AperFunction,SMDPad,CuDef*
G36*
X115148505Y-100647204D02*
G01*
X115172773Y-100650804D01*
X115196572Y-100656765D01*
X115219671Y-100665030D01*
X115241850Y-100675520D01*
X115262893Y-100688132D01*
X115282599Y-100702747D01*
X115300777Y-100719223D01*
X115317253Y-100737401D01*
X115331868Y-100757107D01*
X115344480Y-100778150D01*
X115354970Y-100800329D01*
X115363235Y-100823428D01*
X115369196Y-100847227D01*
X115372796Y-100871495D01*
X115374000Y-100895999D01*
X115374000Y-101796001D01*
X115372796Y-101820505D01*
X115369196Y-101844773D01*
X115363235Y-101868572D01*
X115354970Y-101891671D01*
X115344480Y-101913850D01*
X115331868Y-101934893D01*
X115317253Y-101954599D01*
X115300777Y-101972777D01*
X115282599Y-101989253D01*
X115262893Y-102003868D01*
X115241850Y-102016480D01*
X115219671Y-102026970D01*
X115196572Y-102035235D01*
X115172773Y-102041196D01*
X115148505Y-102044796D01*
X115124001Y-102046000D01*
X114473999Y-102046000D01*
X114449495Y-102044796D01*
X114425227Y-102041196D01*
X114401428Y-102035235D01*
X114378329Y-102026970D01*
X114356150Y-102016480D01*
X114335107Y-102003868D01*
X114315401Y-101989253D01*
X114297223Y-101972777D01*
X114280747Y-101954599D01*
X114266132Y-101934893D01*
X114253520Y-101913850D01*
X114243030Y-101891671D01*
X114234765Y-101868572D01*
X114228804Y-101844773D01*
X114225204Y-101820505D01*
X114224000Y-101796001D01*
X114224000Y-100895999D01*
X114225204Y-100871495D01*
X114228804Y-100847227D01*
X114234765Y-100823428D01*
X114243030Y-100800329D01*
X114253520Y-100778150D01*
X114266132Y-100757107D01*
X114280747Y-100737401D01*
X114297223Y-100719223D01*
X114315401Y-100702747D01*
X114335107Y-100688132D01*
X114356150Y-100675520D01*
X114378329Y-100665030D01*
X114401428Y-100656765D01*
X114425227Y-100650804D01*
X114449495Y-100647204D01*
X114473999Y-100646000D01*
X115124001Y-100646000D01*
X115148505Y-100647204D01*
G37*
G04 #@! TD.AperFunction*
D12*
X122428000Y-104140000D03*
D11*
X124968000Y-104140000D03*
G04 #@! TA.AperFunction,SMDPad,CuDef*
D13*
G36*
X117706000Y-105144000D02*
G01*
X117206000Y-105144000D01*
X117206000Y-105143398D01*
X117181466Y-105143398D01*
X117132635Y-105138588D01*
X117084510Y-105129016D01*
X117037555Y-105114772D01*
X116992222Y-105095995D01*
X116948949Y-105072864D01*
X116908150Y-105045604D01*
X116870221Y-105014476D01*
X116835524Y-104979779D01*
X116804396Y-104941850D01*
X116777136Y-104901051D01*
X116754005Y-104857778D01*
X116735228Y-104812445D01*
X116720984Y-104765490D01*
X116711412Y-104717365D01*
X116706602Y-104668534D01*
X116706602Y-104644000D01*
X116706000Y-104644000D01*
X116706000Y-104144000D01*
X116706602Y-104144000D01*
X116706602Y-104119466D01*
X116711412Y-104070635D01*
X116720984Y-104022510D01*
X116735228Y-103975555D01*
X116754005Y-103930222D01*
X116777136Y-103886949D01*
X116804396Y-103846150D01*
X116835524Y-103808221D01*
X116870221Y-103773524D01*
X116908150Y-103742396D01*
X116948949Y-103715136D01*
X116992222Y-103692005D01*
X117037555Y-103673228D01*
X117084510Y-103658984D01*
X117132635Y-103649412D01*
X117181466Y-103644602D01*
X117206000Y-103644602D01*
X117206000Y-103644000D01*
X117706000Y-103644000D01*
X117706000Y-105144000D01*
G37*
G04 #@! TD.AperFunction*
G04 #@! TA.AperFunction,SMDPad,CuDef*
G36*
X118506000Y-103644602D02*
G01*
X118530534Y-103644602D01*
X118579365Y-103649412D01*
X118627490Y-103658984D01*
X118674445Y-103673228D01*
X118719778Y-103692005D01*
X118763051Y-103715136D01*
X118803850Y-103742396D01*
X118841779Y-103773524D01*
X118876476Y-103808221D01*
X118907604Y-103846150D01*
X118934864Y-103886949D01*
X118957995Y-103930222D01*
X118976772Y-103975555D01*
X118991016Y-104022510D01*
X119000588Y-104070635D01*
X119005398Y-104119466D01*
X119005398Y-104144000D01*
X119006000Y-104144000D01*
X119006000Y-104644000D01*
X119005398Y-104644000D01*
X119005398Y-104668534D01*
X119000588Y-104717365D01*
X118991016Y-104765490D01*
X118976772Y-104812445D01*
X118957995Y-104857778D01*
X118934864Y-104901051D01*
X118907604Y-104941850D01*
X118876476Y-104979779D01*
X118841779Y-105014476D01*
X118803850Y-105045604D01*
X118763051Y-105072864D01*
X118719778Y-105095995D01*
X118674445Y-105114772D01*
X118627490Y-105129016D01*
X118579365Y-105138588D01*
X118530534Y-105143398D01*
X118506000Y-105143398D01*
X118506000Y-105144000D01*
X118006000Y-105144000D01*
X118006000Y-103644000D01*
X118506000Y-103644000D01*
X118506000Y-103644602D01*
G37*
G04 #@! TD.AperFunction*
G04 #@! TA.AperFunction,SMDPad,CuDef*
G36*
X112118000Y-105144000D02*
G01*
X111618000Y-105144000D01*
X111618000Y-105143398D01*
X111593466Y-105143398D01*
X111544635Y-105138588D01*
X111496510Y-105129016D01*
X111449555Y-105114772D01*
X111404222Y-105095995D01*
X111360949Y-105072864D01*
X111320150Y-105045604D01*
X111282221Y-105014476D01*
X111247524Y-104979779D01*
X111216396Y-104941850D01*
X111189136Y-104901051D01*
X111166005Y-104857778D01*
X111147228Y-104812445D01*
X111132984Y-104765490D01*
X111123412Y-104717365D01*
X111118602Y-104668534D01*
X111118602Y-104644000D01*
X111118000Y-104644000D01*
X111118000Y-104144000D01*
X111118602Y-104144000D01*
X111118602Y-104119466D01*
X111123412Y-104070635D01*
X111132984Y-104022510D01*
X111147228Y-103975555D01*
X111166005Y-103930222D01*
X111189136Y-103886949D01*
X111216396Y-103846150D01*
X111247524Y-103808221D01*
X111282221Y-103773524D01*
X111320150Y-103742396D01*
X111360949Y-103715136D01*
X111404222Y-103692005D01*
X111449555Y-103673228D01*
X111496510Y-103658984D01*
X111544635Y-103649412D01*
X111593466Y-103644602D01*
X111618000Y-103644602D01*
X111618000Y-103644000D01*
X112118000Y-103644000D01*
X112118000Y-105144000D01*
G37*
G04 #@! TD.AperFunction*
G04 #@! TA.AperFunction,SMDPad,CuDef*
G36*
X112918000Y-103644602D02*
G01*
X112942534Y-103644602D01*
X112991365Y-103649412D01*
X113039490Y-103658984D01*
X113086445Y-103673228D01*
X113131778Y-103692005D01*
X113175051Y-103715136D01*
X113215850Y-103742396D01*
X113253779Y-103773524D01*
X113288476Y-103808221D01*
X113319604Y-103846150D01*
X113346864Y-103886949D01*
X113369995Y-103930222D01*
X113388772Y-103975555D01*
X113403016Y-104022510D01*
X113412588Y-104070635D01*
X113417398Y-104119466D01*
X113417398Y-104144000D01*
X113418000Y-104144000D01*
X113418000Y-104644000D01*
X113417398Y-104644000D01*
X113417398Y-104668534D01*
X113412588Y-104717365D01*
X113403016Y-104765490D01*
X113388772Y-104812445D01*
X113369995Y-104857778D01*
X113346864Y-104901051D01*
X113319604Y-104941850D01*
X113288476Y-104979779D01*
X113253779Y-105014476D01*
X113215850Y-105045604D01*
X113175051Y-105072864D01*
X113131778Y-105095995D01*
X113086445Y-105114772D01*
X113039490Y-105129016D01*
X112991365Y-105138588D01*
X112942534Y-105143398D01*
X112918000Y-105143398D01*
X112918000Y-105144000D01*
X112418000Y-105144000D01*
X112418000Y-103644000D01*
X112918000Y-103644000D01*
X112918000Y-103644602D01*
G37*
G04 #@! TD.AperFunction*
D14*
X118640000Y-90994000D03*
X111020000Y-98614000D03*
X118640000Y-93534000D03*
X111020000Y-96074000D03*
X118640000Y-96074000D03*
X111020000Y-93534000D03*
X118640000Y-98614000D03*
D15*
X111020000Y-90994000D03*
G04 #@! TA.AperFunction,SMDPad,CuDef*
D13*
G36*
X108054505Y-95059204D02*
G01*
X108078773Y-95062804D01*
X108102572Y-95068765D01*
X108125671Y-95077030D01*
X108147850Y-95087520D01*
X108168893Y-95100132D01*
X108188599Y-95114747D01*
X108206777Y-95131223D01*
X108223253Y-95149401D01*
X108237868Y-95169107D01*
X108250480Y-95190150D01*
X108260970Y-95212329D01*
X108269235Y-95235428D01*
X108275196Y-95259227D01*
X108278796Y-95283495D01*
X108280000Y-95307999D01*
X108280000Y-96208001D01*
X108278796Y-96232505D01*
X108275196Y-96256773D01*
X108269235Y-96280572D01*
X108260970Y-96303671D01*
X108250480Y-96325850D01*
X108237868Y-96346893D01*
X108223253Y-96366599D01*
X108206777Y-96384777D01*
X108188599Y-96401253D01*
X108168893Y-96415868D01*
X108147850Y-96428480D01*
X108125671Y-96438970D01*
X108102572Y-96447235D01*
X108078773Y-96453196D01*
X108054505Y-96456796D01*
X108030001Y-96458000D01*
X107379999Y-96458000D01*
X107355495Y-96456796D01*
X107331227Y-96453196D01*
X107307428Y-96447235D01*
X107284329Y-96438970D01*
X107262150Y-96428480D01*
X107241107Y-96415868D01*
X107221401Y-96401253D01*
X107203223Y-96384777D01*
X107186747Y-96366599D01*
X107172132Y-96346893D01*
X107159520Y-96325850D01*
X107149030Y-96303671D01*
X107140765Y-96280572D01*
X107134804Y-96256773D01*
X107131204Y-96232505D01*
X107130000Y-96208001D01*
X107130000Y-95307999D01*
X107131204Y-95283495D01*
X107134804Y-95259227D01*
X107140765Y-95235428D01*
X107149030Y-95212329D01*
X107159520Y-95190150D01*
X107172132Y-95169107D01*
X107186747Y-95149401D01*
X107203223Y-95131223D01*
X107221401Y-95114747D01*
X107241107Y-95100132D01*
X107262150Y-95087520D01*
X107284329Y-95077030D01*
X107307428Y-95068765D01*
X107331227Y-95062804D01*
X107355495Y-95059204D01*
X107379999Y-95058000D01*
X108030001Y-95058000D01*
X108054505Y-95059204D01*
G37*
G04 #@! TD.AperFunction*
G04 #@! TA.AperFunction,SMDPad,CuDef*
G36*
X106004505Y-95059204D02*
G01*
X106028773Y-95062804D01*
X106052572Y-95068765D01*
X106075671Y-95077030D01*
X106097850Y-95087520D01*
X106118893Y-95100132D01*
X106138599Y-95114747D01*
X106156777Y-95131223D01*
X106173253Y-95149401D01*
X106187868Y-95169107D01*
X106200480Y-95190150D01*
X106210970Y-95212329D01*
X106219235Y-95235428D01*
X106225196Y-95259227D01*
X106228796Y-95283495D01*
X106230000Y-95307999D01*
X106230000Y-96208001D01*
X106228796Y-96232505D01*
X106225196Y-96256773D01*
X106219235Y-96280572D01*
X106210970Y-96303671D01*
X106200480Y-96325850D01*
X106187868Y-96346893D01*
X106173253Y-96366599D01*
X106156777Y-96384777D01*
X106138599Y-96401253D01*
X106118893Y-96415868D01*
X106097850Y-96428480D01*
X106075671Y-96438970D01*
X106052572Y-96447235D01*
X106028773Y-96453196D01*
X106004505Y-96456796D01*
X105980001Y-96458000D01*
X105329999Y-96458000D01*
X105305495Y-96456796D01*
X105281227Y-96453196D01*
X105257428Y-96447235D01*
X105234329Y-96438970D01*
X105212150Y-96428480D01*
X105191107Y-96415868D01*
X105171401Y-96401253D01*
X105153223Y-96384777D01*
X105136747Y-96366599D01*
X105122132Y-96346893D01*
X105109520Y-96325850D01*
X105099030Y-96303671D01*
X105090765Y-96280572D01*
X105084804Y-96256773D01*
X105081204Y-96232505D01*
X105080000Y-96208001D01*
X105080000Y-95307999D01*
X105081204Y-95283495D01*
X105084804Y-95259227D01*
X105090765Y-95235428D01*
X105099030Y-95212329D01*
X105109520Y-95190150D01*
X105122132Y-95169107D01*
X105136747Y-95149401D01*
X105153223Y-95131223D01*
X105171401Y-95114747D01*
X105191107Y-95100132D01*
X105212150Y-95087520D01*
X105234329Y-95077030D01*
X105257428Y-95068765D01*
X105281227Y-95062804D01*
X105305495Y-95059204D01*
X105329999Y-95058000D01*
X105980001Y-95058000D01*
X106004505Y-95059204D01*
G37*
G04 #@! TD.AperFunction*
G04 #@! TA.AperFunction,SMDPad,CuDef*
G36*
X106013505Y-98869204D02*
G01*
X106037773Y-98872804D01*
X106061572Y-98878765D01*
X106084671Y-98887030D01*
X106106850Y-98897520D01*
X106127893Y-98910132D01*
X106147599Y-98924747D01*
X106165777Y-98941223D01*
X106182253Y-98959401D01*
X106196868Y-98979107D01*
X106209480Y-99000150D01*
X106219970Y-99022329D01*
X106228235Y-99045428D01*
X106234196Y-99069227D01*
X106237796Y-99093495D01*
X106239000Y-99117999D01*
X106239000Y-100018001D01*
X106237796Y-100042505D01*
X106234196Y-100066773D01*
X106228235Y-100090572D01*
X106219970Y-100113671D01*
X106209480Y-100135850D01*
X106196868Y-100156893D01*
X106182253Y-100176599D01*
X106165777Y-100194777D01*
X106147599Y-100211253D01*
X106127893Y-100225868D01*
X106106850Y-100238480D01*
X106084671Y-100248970D01*
X106061572Y-100257235D01*
X106037773Y-100263196D01*
X106013505Y-100266796D01*
X105989001Y-100268000D01*
X105338999Y-100268000D01*
X105314495Y-100266796D01*
X105290227Y-100263196D01*
X105266428Y-100257235D01*
X105243329Y-100248970D01*
X105221150Y-100238480D01*
X105200107Y-100225868D01*
X105180401Y-100211253D01*
X105162223Y-100194777D01*
X105145747Y-100176599D01*
X105131132Y-100156893D01*
X105118520Y-100135850D01*
X105108030Y-100113671D01*
X105099765Y-100090572D01*
X105093804Y-100066773D01*
X105090204Y-100042505D01*
X105089000Y-100018001D01*
X105089000Y-99117999D01*
X105090204Y-99093495D01*
X105093804Y-99069227D01*
X105099765Y-99045428D01*
X105108030Y-99022329D01*
X105118520Y-99000150D01*
X105131132Y-98979107D01*
X105145747Y-98959401D01*
X105162223Y-98941223D01*
X105180401Y-98924747D01*
X105200107Y-98910132D01*
X105221150Y-98897520D01*
X105243329Y-98887030D01*
X105266428Y-98878765D01*
X105290227Y-98872804D01*
X105314495Y-98869204D01*
X105338999Y-98868000D01*
X105989001Y-98868000D01*
X106013505Y-98869204D01*
G37*
G04 #@! TD.AperFunction*
G04 #@! TA.AperFunction,SMDPad,CuDef*
G36*
X108063505Y-98869204D02*
G01*
X108087773Y-98872804D01*
X108111572Y-98878765D01*
X108134671Y-98887030D01*
X108156850Y-98897520D01*
X108177893Y-98910132D01*
X108197599Y-98924747D01*
X108215777Y-98941223D01*
X108232253Y-98959401D01*
X108246868Y-98979107D01*
X108259480Y-99000150D01*
X108269970Y-99022329D01*
X108278235Y-99045428D01*
X108284196Y-99069227D01*
X108287796Y-99093495D01*
X108289000Y-99117999D01*
X108289000Y-100018001D01*
X108287796Y-100042505D01*
X108284196Y-100066773D01*
X108278235Y-100090572D01*
X108269970Y-100113671D01*
X108259480Y-100135850D01*
X108246868Y-100156893D01*
X108232253Y-100176599D01*
X108215777Y-100194777D01*
X108197599Y-100211253D01*
X108177893Y-100225868D01*
X108156850Y-100238480D01*
X108134671Y-100248970D01*
X108111572Y-100257235D01*
X108087773Y-100263196D01*
X108063505Y-100266796D01*
X108039001Y-100268000D01*
X107388999Y-100268000D01*
X107364495Y-100266796D01*
X107340227Y-100263196D01*
X107316428Y-100257235D01*
X107293329Y-100248970D01*
X107271150Y-100238480D01*
X107250107Y-100225868D01*
X107230401Y-100211253D01*
X107212223Y-100194777D01*
X107195747Y-100176599D01*
X107181132Y-100156893D01*
X107168520Y-100135850D01*
X107158030Y-100113671D01*
X107149765Y-100090572D01*
X107143804Y-100066773D01*
X107140204Y-100042505D01*
X107139000Y-100018001D01*
X107139000Y-99117999D01*
X107140204Y-99093495D01*
X107143804Y-99069227D01*
X107149765Y-99045428D01*
X107158030Y-99022329D01*
X107168520Y-99000150D01*
X107181132Y-98979107D01*
X107195747Y-98959401D01*
X107212223Y-98941223D01*
X107230401Y-98924747D01*
X107250107Y-98910132D01*
X107271150Y-98897520D01*
X107293329Y-98887030D01*
X107316428Y-98878765D01*
X107340227Y-98872804D01*
X107364495Y-98869204D01*
X107388999Y-98868000D01*
X108039001Y-98868000D01*
X108063505Y-98869204D01*
G37*
G04 #@! TD.AperFunction*
D16*
X105410000Y-90932000D03*
D17*
X107950000Y-90932000D03*
X107696000Y-104140000D03*
D16*
X105156000Y-104140000D03*
D18*
X120141993Y-104139993D03*
X113538000Y-101346000D03*
D19*
X105664000Y-99577000D02*
X105401000Y-99314000D01*
X105156000Y-104140000D02*
X105664000Y-103632000D01*
X105664000Y-103632000D02*
X105664000Y-99577000D01*
X105410000Y-95513000D02*
X105655000Y-95758000D01*
X105410000Y-90932000D02*
X105410000Y-95513000D01*
X122174000Y-90932000D02*
X122428000Y-91186000D01*
X111020000Y-90994000D02*
X111020000Y-89944000D01*
X120650000Y-89408000D02*
X122174000Y-90932000D01*
X111020000Y-89944000D02*
X111095001Y-89868999D01*
X111095001Y-89868999D02*
X111095001Y-89564999D01*
X111095001Y-89564999D02*
X111252000Y-89408000D01*
X111252000Y-89408000D02*
X120650000Y-89408000D01*
X117424000Y-101346000D02*
X116849000Y-101346000D01*
X122428000Y-104140000D02*
X122428000Y-103040000D01*
X122428000Y-103040000D02*
X120734000Y-101346000D01*
X120734000Y-101346000D02*
X117424000Y-101346000D01*
X118618000Y-104140000D02*
X118618007Y-104139993D01*
X118618007Y-104139993D02*
X119576308Y-104139993D01*
X119576308Y-104139993D02*
X120141993Y-104139993D01*
X113426000Y-104394000D02*
X112812973Y-103780973D01*
X112812973Y-103780973D02*
X112812973Y-99982025D01*
X116720998Y-96074000D02*
X117508630Y-96074000D01*
X117508630Y-96074000D02*
X118640000Y-96074000D01*
X112812973Y-99982025D02*
X116720998Y-96074000D01*
X113538000Y-101346000D02*
X114799000Y-101346000D01*
D10*
G36*
X120783048Y-88657427D02*
G01*
X120687333Y-88648000D01*
X120687322Y-88648000D01*
X120650000Y-88644324D01*
X120612678Y-88648000D01*
X111289322Y-88648000D01*
X111251999Y-88644324D01*
X111214676Y-88648000D01*
X111214667Y-88648000D01*
X111103014Y-88658997D01*
X110959753Y-88702454D01*
X110827724Y-88773026D01*
X110711999Y-88867999D01*
X110688196Y-88897003D01*
X110584003Y-89001196D01*
X110555000Y-89024998D01*
X110460027Y-89140723D01*
X110389455Y-89272752D01*
X110345998Y-89416013D01*
X110335001Y-89527666D01*
X110335001Y-89527677D01*
X110332218Y-89555928D01*
X110220000Y-89555928D01*
X110095518Y-89568188D01*
X109975820Y-89604498D01*
X109865506Y-89663463D01*
X109768815Y-89742815D01*
X109689463Y-89839506D01*
X109630498Y-89949820D01*
X109594188Y-90069518D01*
X109581928Y-90194000D01*
X109581928Y-91794000D01*
X109594188Y-91918482D01*
X109630498Y-92038180D01*
X109689463Y-92148494D01*
X109768815Y-92245185D01*
X109865506Y-92324537D01*
X109975820Y-92383502D01*
X110095518Y-92419812D01*
X110103961Y-92420643D01*
X109905363Y-92619241D01*
X109748320Y-92854273D01*
X109640147Y-93115426D01*
X109585000Y-93392665D01*
X109585000Y-93675335D01*
X109640147Y-93952574D01*
X109748320Y-94213727D01*
X109905363Y-94448759D01*
X110105241Y-94648637D01*
X110337759Y-94804000D01*
X110105241Y-94959363D01*
X109905363Y-95159241D01*
X109748320Y-95394273D01*
X109640147Y-95655426D01*
X109585000Y-95932665D01*
X109585000Y-96215335D01*
X109640147Y-96492574D01*
X109748320Y-96753727D01*
X109905363Y-96988759D01*
X110105241Y-97188637D01*
X110337759Y-97344000D01*
X110105241Y-97499363D01*
X109905363Y-97699241D01*
X109748320Y-97934273D01*
X109640147Y-98195426D01*
X109585000Y-98472665D01*
X109585000Y-98755335D01*
X109640147Y-99032574D01*
X109748320Y-99293727D01*
X109905363Y-99528759D01*
X110105241Y-99728637D01*
X110340273Y-99885680D01*
X110601426Y-99993853D01*
X110878665Y-100049000D01*
X111161335Y-100049000D01*
X111438574Y-99993853D01*
X111699727Y-99885680D01*
X111934759Y-99728637D01*
X112134637Y-99528759D01*
X112291680Y-99293727D01*
X112399853Y-99032574D01*
X112455000Y-98755335D01*
X112455000Y-98472665D01*
X112399853Y-98195426D01*
X112291680Y-97934273D01*
X112134637Y-97699241D01*
X111934759Y-97499363D01*
X111702241Y-97344000D01*
X111934759Y-97188637D01*
X112134637Y-96988759D01*
X112291680Y-96753727D01*
X112399853Y-96492574D01*
X112455000Y-96215335D01*
X112455000Y-95932665D01*
X112399853Y-95655426D01*
X112291680Y-95394273D01*
X112134637Y-95159241D01*
X111934759Y-94959363D01*
X111702241Y-94804000D01*
X111934759Y-94648637D01*
X112134637Y-94448759D01*
X112291680Y-94213727D01*
X112399853Y-93952574D01*
X112455000Y-93675335D01*
X112455000Y-93392665D01*
X112399853Y-93115426D01*
X112291680Y-92854273D01*
X112134637Y-92619241D01*
X111936039Y-92420643D01*
X111944482Y-92419812D01*
X112064180Y-92383502D01*
X112174494Y-92324537D01*
X112271185Y-92245185D01*
X112350537Y-92148494D01*
X112409502Y-92038180D01*
X112445812Y-91918482D01*
X112458072Y-91794000D01*
X112458072Y-90194000D01*
X112455511Y-90168000D01*
X117474623Y-90168000D01*
X117408963Y-90256580D01*
X117288754Y-90510913D01*
X117248096Y-90644961D01*
X117370085Y-90867000D01*
X118513000Y-90867000D01*
X118513000Y-90847000D01*
X118767000Y-90847000D01*
X118767000Y-90867000D01*
X119909915Y-90867000D01*
X120031904Y-90644961D01*
X119991246Y-90510913D01*
X119871037Y-90256580D01*
X119805377Y-90168000D01*
X120335199Y-90168000D01*
X120685928Y-90518730D01*
X120685928Y-91782000D01*
X120698188Y-91906482D01*
X120734498Y-92026180D01*
X120793463Y-92136494D01*
X120872815Y-92233185D01*
X120969506Y-92312537D01*
X121079820Y-92371502D01*
X121152380Y-92393513D01*
X121020525Y-92525368D01*
X120858010Y-92768589D01*
X120746068Y-93038842D01*
X120689000Y-93325740D01*
X120689000Y-93618260D01*
X120746068Y-93905158D01*
X120858010Y-94175411D01*
X121020525Y-94418632D01*
X121227368Y-94625475D01*
X121401760Y-94742000D01*
X121227368Y-94858525D01*
X121020525Y-95065368D01*
X120858010Y-95308589D01*
X120746068Y-95578842D01*
X120689000Y-95865740D01*
X120689000Y-96158260D01*
X120746068Y-96445158D01*
X120858010Y-96715411D01*
X121020525Y-96958632D01*
X121227368Y-97165475D01*
X121401760Y-97282000D01*
X121227368Y-97398525D01*
X121020525Y-97605368D01*
X120858010Y-97848589D01*
X120746068Y-98118842D01*
X120689000Y-98405740D01*
X120689000Y-98698260D01*
X120746068Y-98985158D01*
X120858010Y-99255411D01*
X121020525Y-99498632D01*
X121227368Y-99705475D01*
X121470589Y-99867990D01*
X121740842Y-99979932D01*
X122027740Y-100037000D01*
X122320260Y-100037000D01*
X122607158Y-99979932D01*
X122877411Y-99867990D01*
X123120632Y-99705475D01*
X123327475Y-99498632D01*
X123445100Y-99322594D01*
X123616412Y-99552269D01*
X123832645Y-99747178D01*
X124082748Y-99896157D01*
X124357109Y-99993481D01*
X124587000Y-99872814D01*
X124587000Y-98679000D01*
X124567000Y-98679000D01*
X124567000Y-98425000D01*
X124587000Y-98425000D01*
X124587000Y-96139000D01*
X124567000Y-96139000D01*
X124567000Y-95885000D01*
X124587000Y-95885000D01*
X124587000Y-93599000D01*
X124567000Y-93599000D01*
X124567000Y-93345000D01*
X124587000Y-93345000D01*
X124587000Y-91059000D01*
X124567000Y-91059000D01*
X124567000Y-90805000D01*
X124587000Y-90805000D01*
X124587000Y-89611186D01*
X124357109Y-89490519D01*
X124082748Y-89587843D01*
X123832645Y-89736822D01*
X123636498Y-89913626D01*
X123613502Y-89837820D01*
X123564953Y-89746993D01*
X123564953Y-87807000D01*
X126061000Y-87807000D01*
X126061000Y-90323295D01*
X125985641Y-90165080D01*
X125811588Y-89931731D01*
X125595355Y-89736822D01*
X125345252Y-89587843D01*
X125070891Y-89490519D01*
X124841000Y-89611186D01*
X124841000Y-90805000D01*
X124861000Y-90805000D01*
X124861000Y-91059000D01*
X124841000Y-91059000D01*
X124841000Y-93345000D01*
X124861000Y-93345000D01*
X124861000Y-93599000D01*
X124841000Y-93599000D01*
X124841000Y-95885000D01*
X124861000Y-95885000D01*
X124861000Y-96139000D01*
X124841000Y-96139000D01*
X124841000Y-98425000D01*
X124861000Y-98425000D01*
X124861000Y-98679000D01*
X124841000Y-98679000D01*
X124841000Y-99872814D01*
X125070891Y-99993481D01*
X125345252Y-99896157D01*
X125595355Y-99747178D01*
X125811588Y-99552269D01*
X125985641Y-99318920D01*
X126061001Y-99160704D01*
X126061001Y-103145289D01*
X125968269Y-103042412D01*
X125734920Y-102868359D01*
X125472099Y-102743175D01*
X125324890Y-102698524D01*
X125095000Y-102819845D01*
X125095000Y-104013000D01*
X125115000Y-104013000D01*
X125115000Y-104267000D01*
X125095000Y-104267000D01*
X125095000Y-105460155D01*
X125324890Y-105581476D01*
X125472099Y-105536825D01*
X125734920Y-105411641D01*
X125968269Y-105237588D01*
X126061001Y-105134711D01*
X126061001Y-106503000D01*
X103809000Y-106503000D01*
X103809000Y-104886998D01*
X103963688Y-105118505D01*
X104177495Y-105332312D01*
X104428905Y-105500299D01*
X104708257Y-105616011D01*
X105004816Y-105675000D01*
X105307184Y-105675000D01*
X105603743Y-105616011D01*
X105883095Y-105500299D01*
X106134505Y-105332312D01*
X106200944Y-105265873D01*
X106206498Y-105284180D01*
X106265463Y-105394494D01*
X106344815Y-105491185D01*
X106441506Y-105570537D01*
X106551820Y-105629502D01*
X106671518Y-105665812D01*
X106796000Y-105678072D01*
X108596000Y-105678072D01*
X108720482Y-105665812D01*
X108840180Y-105629502D01*
X108950494Y-105570537D01*
X109047185Y-105491185D01*
X109126537Y-105394494D01*
X109185502Y-105284180D01*
X109221812Y-105164482D01*
X109234072Y-105040000D01*
X109234072Y-103644000D01*
X111779928Y-103644000D01*
X111779928Y-105144000D01*
X111792188Y-105268482D01*
X111828498Y-105388180D01*
X111887463Y-105498494D01*
X111966815Y-105595185D01*
X112063506Y-105674537D01*
X112173820Y-105733502D01*
X112293518Y-105769812D01*
X112418000Y-105782072D01*
X112918000Y-105782072D01*
X112942450Y-105779664D01*
X112967009Y-105779664D01*
X113091490Y-105767404D01*
X113187623Y-105748282D01*
X113307319Y-105711973D01*
X113397875Y-105674464D01*
X113508192Y-105615498D01*
X113589691Y-105561042D01*
X113686382Y-105481690D01*
X113755690Y-105412382D01*
X113835042Y-105315691D01*
X113889498Y-105234192D01*
X113948464Y-105123875D01*
X113985973Y-105033319D01*
X114022282Y-104913623D01*
X114034937Y-104850002D01*
X114060974Y-104818276D01*
X114131546Y-104686246D01*
X114175002Y-104542985D01*
X114189676Y-104393999D01*
X114175002Y-104245013D01*
X114131546Y-104101753D01*
X114060974Y-103969723D01*
X114034937Y-103937997D01*
X114022282Y-103874377D01*
X113985973Y-103754681D01*
X113948464Y-103664125D01*
X113889498Y-103553808D01*
X113835042Y-103472309D01*
X113755690Y-103375618D01*
X113686382Y-103306310D01*
X113589691Y-103226958D01*
X113572973Y-103215787D01*
X113572973Y-102381000D01*
X113639939Y-102381000D01*
X113786805Y-102351787D01*
X113846038Y-102423962D01*
X113980613Y-102534405D01*
X114134149Y-102616472D01*
X114300745Y-102667008D01*
X114473999Y-102684072D01*
X115124001Y-102684072D01*
X115297255Y-102667008D01*
X115463851Y-102616472D01*
X115617387Y-102534405D01*
X115751962Y-102423962D01*
X115824000Y-102336184D01*
X115896038Y-102423962D01*
X116030613Y-102534405D01*
X116184149Y-102616472D01*
X116350745Y-102667008D01*
X116523999Y-102684072D01*
X117174001Y-102684072D01*
X117347255Y-102667008D01*
X117513851Y-102616472D01*
X117667387Y-102534405D01*
X117801962Y-102423962D01*
X117912405Y-102289387D01*
X117994472Y-102135851D01*
X118003527Y-102106000D01*
X120419199Y-102106000D01*
X121140655Y-102827457D01*
X121126815Y-102838815D01*
X121047463Y-102935506D01*
X120988498Y-103045820D01*
X120952188Y-103165518D01*
X120939928Y-103290000D01*
X120939928Y-103474217D01*
X120801767Y-103336056D01*
X120632249Y-103222788D01*
X120443891Y-103144767D01*
X120243932Y-103104993D01*
X120040054Y-103104993D01*
X119840095Y-103144767D01*
X119651737Y-103222788D01*
X119482219Y-103336056D01*
X119438282Y-103379993D01*
X119347280Y-103379993D01*
X119343690Y-103375618D01*
X119274382Y-103306310D01*
X119177691Y-103226958D01*
X119096192Y-103172502D01*
X118985875Y-103113536D01*
X118895319Y-103076027D01*
X118775623Y-103039718D01*
X118679490Y-103020596D01*
X118555009Y-103008336D01*
X118530450Y-103008336D01*
X118506000Y-103005928D01*
X118006000Y-103005928D01*
X117881518Y-103018188D01*
X117761820Y-103054498D01*
X117651506Y-103113463D01*
X117554815Y-103192815D01*
X117475463Y-103289506D01*
X117416498Y-103399820D01*
X117380188Y-103519518D01*
X117367928Y-103644000D01*
X117367928Y-105144000D01*
X117380188Y-105268482D01*
X117416498Y-105388180D01*
X117475463Y-105498494D01*
X117554815Y-105595185D01*
X117651506Y-105674537D01*
X117761820Y-105733502D01*
X117881518Y-105769812D01*
X118006000Y-105782072D01*
X118506000Y-105782072D01*
X118530450Y-105779664D01*
X118555009Y-105779664D01*
X118679490Y-105767404D01*
X118775623Y-105748282D01*
X118895319Y-105711973D01*
X118985875Y-105674464D01*
X119096192Y-105615498D01*
X119177691Y-105561042D01*
X119274382Y-105481690D01*
X119343690Y-105412382D01*
X119423042Y-105315691D01*
X119477498Y-105234192D01*
X119536464Y-105123875D01*
X119573973Y-105033319D01*
X119581056Y-105009970D01*
X119651737Y-105057198D01*
X119840095Y-105135219D01*
X120040054Y-105174993D01*
X120243932Y-105174993D01*
X120443891Y-105135219D01*
X120632249Y-105057198D01*
X120801767Y-104943930D01*
X120939928Y-104805769D01*
X120939928Y-104990000D01*
X120952188Y-105114482D01*
X120988498Y-105234180D01*
X121047463Y-105344494D01*
X121126815Y-105441185D01*
X121223506Y-105520537D01*
X121333820Y-105579502D01*
X121453518Y-105615812D01*
X121578000Y-105628072D01*
X123278000Y-105628072D01*
X123402482Y-105615812D01*
X123522180Y-105579502D01*
X123632494Y-105520537D01*
X123729185Y-105441185D01*
X123808537Y-105344494D01*
X123867502Y-105234180D01*
X123891966Y-105153534D01*
X123967731Y-105237588D01*
X124201080Y-105411641D01*
X124463901Y-105536825D01*
X124611110Y-105581476D01*
X124841000Y-105460155D01*
X124841000Y-104267000D01*
X124821000Y-104267000D01*
X124821000Y-104013000D01*
X124841000Y-104013000D01*
X124841000Y-102819845D01*
X124611110Y-102698524D01*
X124463901Y-102743175D01*
X124201080Y-102868359D01*
X123967731Y-103042412D01*
X123891966Y-103126466D01*
X123867502Y-103045820D01*
X123808537Y-102935506D01*
X123729185Y-102838815D01*
X123632494Y-102759463D01*
X123522180Y-102700498D01*
X123402482Y-102664188D01*
X123278000Y-102651928D01*
X123082326Y-102651928D01*
X123062974Y-102615724D01*
X122968001Y-102499999D01*
X122939003Y-102476201D01*
X121297804Y-100835003D01*
X121274001Y-100805999D01*
X121158276Y-100711026D01*
X121026247Y-100640454D01*
X120882986Y-100596997D01*
X120771333Y-100586000D01*
X120771322Y-100586000D01*
X120734000Y-100582324D01*
X120696678Y-100586000D01*
X118003527Y-100586000D01*
X117994472Y-100556149D01*
X117912405Y-100402613D01*
X117801962Y-100268038D01*
X117667387Y-100157595D01*
X117513851Y-100075528D01*
X117347255Y-100024992D01*
X117174001Y-100007928D01*
X116523999Y-100007928D01*
X116350745Y-100024992D01*
X116184149Y-100075528D01*
X116030613Y-100157595D01*
X115896038Y-100268038D01*
X115824000Y-100355816D01*
X115751962Y-100268038D01*
X115617387Y-100157595D01*
X115463851Y-100075528D01*
X115297255Y-100024992D01*
X115124001Y-100007928D01*
X114473999Y-100007928D01*
X114300745Y-100024992D01*
X114134149Y-100075528D01*
X113980613Y-100157595D01*
X113846038Y-100268038D01*
X113786805Y-100340213D01*
X113639939Y-100311000D01*
X113572973Y-100311000D01*
X113572973Y-100296826D01*
X117035800Y-96834000D01*
X117421957Y-96834000D01*
X117525363Y-96988759D01*
X117725241Y-97188637D01*
X117957759Y-97344000D01*
X117725241Y-97499363D01*
X117525363Y-97699241D01*
X117368320Y-97934273D01*
X117260147Y-98195426D01*
X117205000Y-98472665D01*
X117205000Y-98755335D01*
X117260147Y-99032574D01*
X117368320Y-99293727D01*
X117525363Y-99528759D01*
X117725241Y-99728637D01*
X117960273Y-99885680D01*
X118221426Y-99993853D01*
X118498665Y-100049000D01*
X118781335Y-100049000D01*
X119058574Y-99993853D01*
X119319727Y-99885680D01*
X119554759Y-99728637D01*
X119754637Y-99528759D01*
X119911680Y-99293727D01*
X120019853Y-99032574D01*
X120075000Y-98755335D01*
X120075000Y-98472665D01*
X120019853Y-98195426D01*
X119911680Y-97934273D01*
X119754637Y-97699241D01*
X119554759Y-97499363D01*
X119322241Y-97344000D01*
X119554759Y-97188637D01*
X119754637Y-96988759D01*
X119911680Y-96753727D01*
X120019853Y-96492574D01*
X120075000Y-96215335D01*
X120075000Y-95932665D01*
X120019853Y-95655426D01*
X119911680Y-95394273D01*
X119754637Y-95159241D01*
X119554759Y-94959363D01*
X119322241Y-94804000D01*
X119554759Y-94648637D01*
X119754637Y-94448759D01*
X119911680Y-94213727D01*
X120019853Y-93952574D01*
X120075000Y-93675335D01*
X120075000Y-93392665D01*
X120019853Y-93115426D01*
X119911680Y-92854273D01*
X119754637Y-92619241D01*
X119554759Y-92419363D01*
X119319727Y-92262320D01*
X119309135Y-92257933D01*
X119495131Y-92146385D01*
X119703519Y-91957414D01*
X119871037Y-91731420D01*
X119991246Y-91477087D01*
X120031904Y-91343039D01*
X119909915Y-91121000D01*
X118767000Y-91121000D01*
X118767000Y-91141000D01*
X118513000Y-91141000D01*
X118513000Y-91121000D01*
X117370085Y-91121000D01*
X117248096Y-91343039D01*
X117288754Y-91477087D01*
X117408963Y-91731420D01*
X117576481Y-91957414D01*
X117784869Y-92146385D01*
X117970865Y-92257933D01*
X117960273Y-92262320D01*
X117725241Y-92419363D01*
X117525363Y-92619241D01*
X117368320Y-92854273D01*
X117260147Y-93115426D01*
X117205000Y-93392665D01*
X117205000Y-93675335D01*
X117260147Y-93952574D01*
X117368320Y-94213727D01*
X117525363Y-94448759D01*
X117725241Y-94648637D01*
X117957759Y-94804000D01*
X117725241Y-94959363D01*
X117525363Y-95159241D01*
X117421957Y-95314000D01*
X116758321Y-95314000D01*
X116720998Y-95310324D01*
X116683675Y-95314000D01*
X116683665Y-95314000D01*
X116572012Y-95324997D01*
X116443385Y-95364015D01*
X116428751Y-95368454D01*
X116296721Y-95439026D01*
X116256238Y-95472250D01*
X116180997Y-95533999D01*
X116157199Y-95562997D01*
X112301971Y-99418226D01*
X112272973Y-99442024D01*
X112249175Y-99471022D01*
X112249174Y-99471023D01*
X112177999Y-99557749D01*
X112107427Y-99689779D01*
X112090016Y-99747178D01*
X112063971Y-99833039D01*
X112058786Y-99885680D01*
X112049297Y-99982025D01*
X112052974Y-100019357D01*
X112052973Y-103122107D01*
X111966815Y-103192815D01*
X111887463Y-103289506D01*
X111828498Y-103399820D01*
X111792188Y-103519518D01*
X111779928Y-103644000D01*
X109234072Y-103644000D01*
X109234072Y-103240000D01*
X109221812Y-103115518D01*
X109185502Y-102995820D01*
X109126537Y-102885506D01*
X109047185Y-102788815D01*
X108950494Y-102709463D01*
X108840180Y-102650498D01*
X108720482Y-102614188D01*
X108596000Y-102601928D01*
X106796000Y-102601928D01*
X106671518Y-102614188D01*
X106551820Y-102650498D01*
X106441506Y-102709463D01*
X106424000Y-102723830D01*
X106424000Y-100787614D01*
X106482387Y-100756405D01*
X106616962Y-100645962D01*
X106622342Y-100639406D01*
X106687815Y-100719185D01*
X106784506Y-100798537D01*
X106894820Y-100857502D01*
X107014518Y-100893812D01*
X107139000Y-100906072D01*
X107428250Y-100903000D01*
X107587000Y-100744250D01*
X107587000Y-99695000D01*
X107841000Y-99695000D01*
X107841000Y-100744250D01*
X107999750Y-100903000D01*
X108289000Y-100906072D01*
X108413482Y-100893812D01*
X108533180Y-100857502D01*
X108643494Y-100798537D01*
X108740185Y-100719185D01*
X108819537Y-100622494D01*
X108878502Y-100512180D01*
X108914812Y-100392482D01*
X108927072Y-100268000D01*
X108924000Y-99853750D01*
X108765250Y-99695000D01*
X107841000Y-99695000D01*
X107587000Y-99695000D01*
X107567000Y-99695000D01*
X107567000Y-99441000D01*
X107587000Y-99441000D01*
X107587000Y-98391750D01*
X107841000Y-98391750D01*
X107841000Y-99441000D01*
X108765250Y-99441000D01*
X108924000Y-99282250D01*
X108927072Y-98868000D01*
X108914812Y-98743518D01*
X108878502Y-98623820D01*
X108819537Y-98513506D01*
X108740185Y-98416815D01*
X108643494Y-98337463D01*
X108533180Y-98278498D01*
X108413482Y-98242188D01*
X108289000Y-98229928D01*
X107999750Y-98233000D01*
X107841000Y-98391750D01*
X107587000Y-98391750D01*
X107428250Y-98233000D01*
X107139000Y-98229928D01*
X107014518Y-98242188D01*
X106894820Y-98278498D01*
X106784506Y-98337463D01*
X106687815Y-98416815D01*
X106622342Y-98496594D01*
X106616962Y-98490038D01*
X106482387Y-98379595D01*
X106328851Y-98297528D01*
X106162255Y-98246992D01*
X105989001Y-98229928D01*
X105338999Y-98229928D01*
X105165745Y-98246992D01*
X104999149Y-98297528D01*
X104845613Y-98379595D01*
X104711038Y-98490038D01*
X104600595Y-98624613D01*
X104518528Y-98778149D01*
X104467992Y-98944745D01*
X104450928Y-99117999D01*
X104450928Y-100018001D01*
X104467992Y-100191255D01*
X104518528Y-100357851D01*
X104600595Y-100511387D01*
X104711038Y-100645962D01*
X104845613Y-100756405D01*
X104904001Y-100787614D01*
X104904000Y-102625053D01*
X104708257Y-102663989D01*
X104428905Y-102779701D01*
X104177495Y-102947688D01*
X103963688Y-103161495D01*
X103809000Y-103393002D01*
X103809000Y-90780816D01*
X103875000Y-90780816D01*
X103875000Y-91083184D01*
X103933989Y-91379743D01*
X104049701Y-91659095D01*
X104217688Y-91910505D01*
X104431495Y-92124312D01*
X104650000Y-92270313D01*
X104650001Y-94743445D01*
X104591595Y-94814613D01*
X104509528Y-94968149D01*
X104458992Y-95134745D01*
X104441928Y-95307999D01*
X104441928Y-96208001D01*
X104458992Y-96381255D01*
X104509528Y-96547851D01*
X104591595Y-96701387D01*
X104702038Y-96835962D01*
X104836613Y-96946405D01*
X104990149Y-97028472D01*
X105156745Y-97079008D01*
X105329999Y-97096072D01*
X105980001Y-97096072D01*
X106153255Y-97079008D01*
X106319851Y-97028472D01*
X106473387Y-96946405D01*
X106607962Y-96835962D01*
X106613342Y-96829406D01*
X106678815Y-96909185D01*
X106775506Y-96988537D01*
X106885820Y-97047502D01*
X107005518Y-97083812D01*
X107130000Y-97096072D01*
X107419250Y-97093000D01*
X107578000Y-96934250D01*
X107578000Y-95885000D01*
X107832000Y-95885000D01*
X107832000Y-96934250D01*
X107990750Y-97093000D01*
X108280000Y-97096072D01*
X108404482Y-97083812D01*
X108524180Y-97047502D01*
X108634494Y-96988537D01*
X108731185Y-96909185D01*
X108810537Y-96812494D01*
X108869502Y-96702180D01*
X108905812Y-96582482D01*
X108918072Y-96458000D01*
X108915000Y-96043750D01*
X108756250Y-95885000D01*
X107832000Y-95885000D01*
X107578000Y-95885000D01*
X107558000Y-95885000D01*
X107558000Y-95631000D01*
X107578000Y-95631000D01*
X107578000Y-94581750D01*
X107832000Y-94581750D01*
X107832000Y-95631000D01*
X108756250Y-95631000D01*
X108915000Y-95472250D01*
X108918072Y-95058000D01*
X108905812Y-94933518D01*
X108869502Y-94813820D01*
X108810537Y-94703506D01*
X108731185Y-94606815D01*
X108634494Y-94527463D01*
X108524180Y-94468498D01*
X108404482Y-94432188D01*
X108280000Y-94419928D01*
X107990750Y-94423000D01*
X107832000Y-94581750D01*
X107578000Y-94581750D01*
X107419250Y-94423000D01*
X107130000Y-94419928D01*
X107005518Y-94432188D01*
X106885820Y-94468498D01*
X106775506Y-94527463D01*
X106678815Y-94606815D01*
X106613342Y-94686594D01*
X106607962Y-94680038D01*
X106473387Y-94569595D01*
X106319851Y-94487528D01*
X106170000Y-94442072D01*
X106170000Y-92270313D01*
X106388505Y-92124312D01*
X106454944Y-92057873D01*
X106460498Y-92076180D01*
X106519463Y-92186494D01*
X106598815Y-92283185D01*
X106695506Y-92362537D01*
X106805820Y-92421502D01*
X106925518Y-92457812D01*
X107050000Y-92470072D01*
X108850000Y-92470072D01*
X108974482Y-92457812D01*
X109094180Y-92421502D01*
X109204494Y-92362537D01*
X109301185Y-92283185D01*
X109380537Y-92186494D01*
X109439502Y-92076180D01*
X109475812Y-91956482D01*
X109488072Y-91832000D01*
X109488072Y-90032000D01*
X109475812Y-89907518D01*
X109439502Y-89787820D01*
X109380537Y-89677506D01*
X109301185Y-89580815D01*
X109204494Y-89501463D01*
X109094180Y-89442498D01*
X108974482Y-89406188D01*
X108850000Y-89393928D01*
X107050000Y-89393928D01*
X106925518Y-89406188D01*
X106805820Y-89442498D01*
X106695506Y-89501463D01*
X106598815Y-89580815D01*
X106519463Y-89677506D01*
X106460498Y-89787820D01*
X106454944Y-89806127D01*
X106388505Y-89739688D01*
X106137095Y-89571701D01*
X105857743Y-89455989D01*
X105561184Y-89397000D01*
X105258816Y-89397000D01*
X104962257Y-89455989D01*
X104682905Y-89571701D01*
X104431495Y-89739688D01*
X104217688Y-89953495D01*
X104049701Y-90204905D01*
X103933989Y-90484257D01*
X103875000Y-90780816D01*
X103809000Y-90780816D01*
X103809000Y-87807000D01*
X120783048Y-87807000D01*
X120783048Y-88657427D01*
G37*
X120783048Y-88657427D02*
X120687333Y-88648000D01*
X120687322Y-88648000D01*
X120650000Y-88644324D01*
X120612678Y-88648000D01*
X111289322Y-88648000D01*
X111251999Y-88644324D01*
X111214676Y-88648000D01*
X111214667Y-88648000D01*
X111103014Y-88658997D01*
X110959753Y-88702454D01*
X110827724Y-88773026D01*
X110711999Y-88867999D01*
X110688196Y-88897003D01*
X110584003Y-89001196D01*
X110555000Y-89024998D01*
X110460027Y-89140723D01*
X110389455Y-89272752D01*
X110345998Y-89416013D01*
X110335001Y-89527666D01*
X110335001Y-89527677D01*
X110332218Y-89555928D01*
X110220000Y-89555928D01*
X110095518Y-89568188D01*
X109975820Y-89604498D01*
X109865506Y-89663463D01*
X109768815Y-89742815D01*
X109689463Y-89839506D01*
X109630498Y-89949820D01*
X109594188Y-90069518D01*
X109581928Y-90194000D01*
X109581928Y-91794000D01*
X109594188Y-91918482D01*
X109630498Y-92038180D01*
X109689463Y-92148494D01*
X109768815Y-92245185D01*
X109865506Y-92324537D01*
X109975820Y-92383502D01*
X110095518Y-92419812D01*
X110103961Y-92420643D01*
X109905363Y-92619241D01*
X109748320Y-92854273D01*
X109640147Y-93115426D01*
X109585000Y-93392665D01*
X109585000Y-93675335D01*
X109640147Y-93952574D01*
X109748320Y-94213727D01*
X109905363Y-94448759D01*
X110105241Y-94648637D01*
X110337759Y-94804000D01*
X110105241Y-94959363D01*
X109905363Y-95159241D01*
X109748320Y-95394273D01*
X109640147Y-95655426D01*
X109585000Y-95932665D01*
X109585000Y-96215335D01*
X109640147Y-96492574D01*
X109748320Y-96753727D01*
X109905363Y-96988759D01*
X110105241Y-97188637D01*
X110337759Y-97344000D01*
X110105241Y-97499363D01*
X109905363Y-97699241D01*
X109748320Y-97934273D01*
X109640147Y-98195426D01*
X109585000Y-98472665D01*
X109585000Y-98755335D01*
X109640147Y-99032574D01*
X109748320Y-99293727D01*
X109905363Y-99528759D01*
X110105241Y-99728637D01*
X110340273Y-99885680D01*
X110601426Y-99993853D01*
X110878665Y-100049000D01*
X111161335Y-100049000D01*
X111438574Y-99993853D01*
X111699727Y-99885680D01*
X111934759Y-99728637D01*
X112134637Y-99528759D01*
X112291680Y-99293727D01*
X112399853Y-99032574D01*
X112455000Y-98755335D01*
X112455000Y-98472665D01*
X112399853Y-98195426D01*
X112291680Y-97934273D01*
X112134637Y-97699241D01*
X111934759Y-97499363D01*
X111702241Y-97344000D01*
X111934759Y-97188637D01*
X112134637Y-96988759D01*
X112291680Y-96753727D01*
X112399853Y-96492574D01*
X112455000Y-96215335D01*
X112455000Y-95932665D01*
X112399853Y-95655426D01*
X112291680Y-95394273D01*
X112134637Y-95159241D01*
X111934759Y-94959363D01*
X111702241Y-94804000D01*
X111934759Y-94648637D01*
X112134637Y-94448759D01*
X112291680Y-94213727D01*
X112399853Y-93952574D01*
X112455000Y-93675335D01*
X112455000Y-93392665D01*
X112399853Y-93115426D01*
X112291680Y-92854273D01*
X112134637Y-92619241D01*
X111936039Y-92420643D01*
X111944482Y-92419812D01*
X112064180Y-92383502D01*
X112174494Y-92324537D01*
X112271185Y-92245185D01*
X112350537Y-92148494D01*
X112409502Y-92038180D01*
X112445812Y-91918482D01*
X112458072Y-91794000D01*
X112458072Y-90194000D01*
X112455511Y-90168000D01*
X117474623Y-90168000D01*
X117408963Y-90256580D01*
X117288754Y-90510913D01*
X117248096Y-90644961D01*
X117370085Y-90867000D01*
X118513000Y-90867000D01*
X118513000Y-90847000D01*
X118767000Y-90847000D01*
X118767000Y-90867000D01*
X119909915Y-90867000D01*
X120031904Y-90644961D01*
X119991246Y-90510913D01*
X119871037Y-90256580D01*
X119805377Y-90168000D01*
X120335199Y-90168000D01*
X120685928Y-90518730D01*
X120685928Y-91782000D01*
X120698188Y-91906482D01*
X120734498Y-92026180D01*
X120793463Y-92136494D01*
X120872815Y-92233185D01*
X120969506Y-92312537D01*
X121079820Y-92371502D01*
X121152380Y-92393513D01*
X121020525Y-92525368D01*
X120858010Y-92768589D01*
X120746068Y-93038842D01*
X120689000Y-93325740D01*
X120689000Y-93618260D01*
X120746068Y-93905158D01*
X120858010Y-94175411D01*
X121020525Y-94418632D01*
X121227368Y-94625475D01*
X121401760Y-94742000D01*
X121227368Y-94858525D01*
X121020525Y-95065368D01*
X120858010Y-95308589D01*
X120746068Y-95578842D01*
X120689000Y-95865740D01*
X120689000Y-96158260D01*
X120746068Y-96445158D01*
X120858010Y-96715411D01*
X121020525Y-96958632D01*
X121227368Y-97165475D01*
X121401760Y-97282000D01*
X121227368Y-97398525D01*
X121020525Y-97605368D01*
X120858010Y-97848589D01*
X120746068Y-98118842D01*
X120689000Y-98405740D01*
X120689000Y-98698260D01*
X120746068Y-98985158D01*
X120858010Y-99255411D01*
X121020525Y-99498632D01*
X121227368Y-99705475D01*
X121470589Y-99867990D01*
X121740842Y-99979932D01*
X122027740Y-100037000D01*
X122320260Y-100037000D01*
X122607158Y-99979932D01*
X122877411Y-99867990D01*
X123120632Y-99705475D01*
X123327475Y-99498632D01*
X123445100Y-99322594D01*
X123616412Y-99552269D01*
X123832645Y-99747178D01*
X124082748Y-99896157D01*
X124357109Y-99993481D01*
X124587000Y-99872814D01*
X124587000Y-98679000D01*
X124567000Y-98679000D01*
X124567000Y-98425000D01*
X124587000Y-98425000D01*
X124587000Y-96139000D01*
X124567000Y-96139000D01*
X124567000Y-95885000D01*
X124587000Y-95885000D01*
X124587000Y-93599000D01*
X124567000Y-93599000D01*
X124567000Y-93345000D01*
X124587000Y-93345000D01*
X124587000Y-91059000D01*
X124567000Y-91059000D01*
X124567000Y-90805000D01*
X124587000Y-90805000D01*
X124587000Y-89611186D01*
X124357109Y-89490519D01*
X124082748Y-89587843D01*
X123832645Y-89736822D01*
X123636498Y-89913626D01*
X123613502Y-89837820D01*
X123564953Y-89746993D01*
X123564953Y-87807000D01*
X126061000Y-87807000D01*
X126061000Y-90323295D01*
X125985641Y-90165080D01*
X125811588Y-89931731D01*
X125595355Y-89736822D01*
X125345252Y-89587843D01*
X125070891Y-89490519D01*
X124841000Y-89611186D01*
X124841000Y-90805000D01*
X124861000Y-90805000D01*
X124861000Y-91059000D01*
X124841000Y-91059000D01*
X124841000Y-93345000D01*
X124861000Y-93345000D01*
X124861000Y-93599000D01*
X124841000Y-93599000D01*
X124841000Y-95885000D01*
X124861000Y-95885000D01*
X124861000Y-96139000D01*
X124841000Y-96139000D01*
X124841000Y-98425000D01*
X124861000Y-98425000D01*
X124861000Y-98679000D01*
X124841000Y-98679000D01*
X124841000Y-99872814D01*
X125070891Y-99993481D01*
X125345252Y-99896157D01*
X125595355Y-99747178D01*
X125811588Y-99552269D01*
X125985641Y-99318920D01*
X126061001Y-99160704D01*
X126061001Y-103145289D01*
X125968269Y-103042412D01*
X125734920Y-102868359D01*
X125472099Y-102743175D01*
X125324890Y-102698524D01*
X125095000Y-102819845D01*
X125095000Y-104013000D01*
X125115000Y-104013000D01*
X125115000Y-104267000D01*
X125095000Y-104267000D01*
X125095000Y-105460155D01*
X125324890Y-105581476D01*
X125472099Y-105536825D01*
X125734920Y-105411641D01*
X125968269Y-105237588D01*
X126061001Y-105134711D01*
X126061001Y-106503000D01*
X103809000Y-106503000D01*
X103809000Y-104886998D01*
X103963688Y-105118505D01*
X104177495Y-105332312D01*
X104428905Y-105500299D01*
X104708257Y-105616011D01*
X105004816Y-105675000D01*
X105307184Y-105675000D01*
X105603743Y-105616011D01*
X105883095Y-105500299D01*
X106134505Y-105332312D01*
X106200944Y-105265873D01*
X106206498Y-105284180D01*
X106265463Y-105394494D01*
X106344815Y-105491185D01*
X106441506Y-105570537D01*
X106551820Y-105629502D01*
X106671518Y-105665812D01*
X106796000Y-105678072D01*
X108596000Y-105678072D01*
X108720482Y-105665812D01*
X108840180Y-105629502D01*
X108950494Y-105570537D01*
X109047185Y-105491185D01*
X109126537Y-105394494D01*
X109185502Y-105284180D01*
X109221812Y-105164482D01*
X109234072Y-105040000D01*
X109234072Y-103644000D01*
X111779928Y-103644000D01*
X111779928Y-105144000D01*
X111792188Y-105268482D01*
X111828498Y-105388180D01*
X111887463Y-105498494D01*
X111966815Y-105595185D01*
X112063506Y-105674537D01*
X112173820Y-105733502D01*
X112293518Y-105769812D01*
X112418000Y-105782072D01*
X112918000Y-105782072D01*
X112942450Y-105779664D01*
X112967009Y-105779664D01*
X113091490Y-105767404D01*
X113187623Y-105748282D01*
X113307319Y-105711973D01*
X113397875Y-105674464D01*
X113508192Y-105615498D01*
X113589691Y-105561042D01*
X113686382Y-105481690D01*
X113755690Y-105412382D01*
X113835042Y-105315691D01*
X113889498Y-105234192D01*
X113948464Y-105123875D01*
X113985973Y-105033319D01*
X114022282Y-104913623D01*
X114034937Y-104850002D01*
X114060974Y-104818276D01*
X114131546Y-104686246D01*
X114175002Y-104542985D01*
X114189676Y-104393999D01*
X114175002Y-104245013D01*
X114131546Y-104101753D01*
X114060974Y-103969723D01*
X114034937Y-103937997D01*
X114022282Y-103874377D01*
X113985973Y-103754681D01*
X113948464Y-103664125D01*
X113889498Y-103553808D01*
X113835042Y-103472309D01*
X113755690Y-103375618D01*
X113686382Y-103306310D01*
X113589691Y-103226958D01*
X113572973Y-103215787D01*
X113572973Y-102381000D01*
X113639939Y-102381000D01*
X113786805Y-102351787D01*
X113846038Y-102423962D01*
X113980613Y-102534405D01*
X114134149Y-102616472D01*
X114300745Y-102667008D01*
X114473999Y-102684072D01*
X115124001Y-102684072D01*
X115297255Y-102667008D01*
X115463851Y-102616472D01*
X115617387Y-102534405D01*
X115751962Y-102423962D01*
X115824000Y-102336184D01*
X115896038Y-102423962D01*
X116030613Y-102534405D01*
X116184149Y-102616472D01*
X116350745Y-102667008D01*
X116523999Y-102684072D01*
X117174001Y-102684072D01*
X117347255Y-102667008D01*
X117513851Y-102616472D01*
X117667387Y-102534405D01*
X117801962Y-102423962D01*
X117912405Y-102289387D01*
X117994472Y-102135851D01*
X118003527Y-102106000D01*
X120419199Y-102106000D01*
X121140655Y-102827457D01*
X121126815Y-102838815D01*
X121047463Y-102935506D01*
X120988498Y-103045820D01*
X120952188Y-103165518D01*
X120939928Y-103290000D01*
X120939928Y-103474217D01*
X120801767Y-103336056D01*
X120632249Y-103222788D01*
X120443891Y-103144767D01*
X120243932Y-103104993D01*
X120040054Y-103104993D01*
X119840095Y-103144767D01*
X119651737Y-103222788D01*
X119482219Y-103336056D01*
X119438282Y-103379993D01*
X119347280Y-103379993D01*
X119343690Y-103375618D01*
X119274382Y-103306310D01*
X119177691Y-103226958D01*
X119096192Y-103172502D01*
X118985875Y-103113536D01*
X118895319Y-103076027D01*
X118775623Y-103039718D01*
X118679490Y-103020596D01*
X118555009Y-103008336D01*
X118530450Y-103008336D01*
X118506000Y-103005928D01*
X118006000Y-103005928D01*
X117881518Y-103018188D01*
X117761820Y-103054498D01*
X117651506Y-103113463D01*
X117554815Y-103192815D01*
X117475463Y-103289506D01*
X117416498Y-103399820D01*
X117380188Y-103519518D01*
X117367928Y-103644000D01*
X117367928Y-105144000D01*
X117380188Y-105268482D01*
X117416498Y-105388180D01*
X117475463Y-105498494D01*
X117554815Y-105595185D01*
X117651506Y-105674537D01*
X117761820Y-105733502D01*
X117881518Y-105769812D01*
X118006000Y-105782072D01*
X118506000Y-105782072D01*
X118530450Y-105779664D01*
X118555009Y-105779664D01*
X118679490Y-105767404D01*
X118775623Y-105748282D01*
X118895319Y-105711973D01*
X118985875Y-105674464D01*
X119096192Y-105615498D01*
X119177691Y-105561042D01*
X119274382Y-105481690D01*
X119343690Y-105412382D01*
X119423042Y-105315691D01*
X119477498Y-105234192D01*
X119536464Y-105123875D01*
X119573973Y-105033319D01*
X119581056Y-105009970D01*
X119651737Y-105057198D01*
X119840095Y-105135219D01*
X120040054Y-105174993D01*
X120243932Y-105174993D01*
X120443891Y-105135219D01*
X120632249Y-105057198D01*
X120801767Y-104943930D01*
X120939928Y-104805769D01*
X120939928Y-104990000D01*
X120952188Y-105114482D01*
X120988498Y-105234180D01*
X121047463Y-105344494D01*
X121126815Y-105441185D01*
X121223506Y-105520537D01*
X121333820Y-105579502D01*
X121453518Y-105615812D01*
X121578000Y-105628072D01*
X123278000Y-105628072D01*
X123402482Y-105615812D01*
X123522180Y-105579502D01*
X123632494Y-105520537D01*
X123729185Y-105441185D01*
X123808537Y-105344494D01*
X123867502Y-105234180D01*
X123891966Y-105153534D01*
X123967731Y-105237588D01*
X124201080Y-105411641D01*
X124463901Y-105536825D01*
X124611110Y-105581476D01*
X124841000Y-105460155D01*
X124841000Y-104267000D01*
X124821000Y-104267000D01*
X124821000Y-104013000D01*
X124841000Y-104013000D01*
X124841000Y-102819845D01*
X124611110Y-102698524D01*
X124463901Y-102743175D01*
X124201080Y-102868359D01*
X123967731Y-103042412D01*
X123891966Y-103126466D01*
X123867502Y-103045820D01*
X123808537Y-102935506D01*
X123729185Y-102838815D01*
X123632494Y-102759463D01*
X123522180Y-102700498D01*
X123402482Y-102664188D01*
X123278000Y-102651928D01*
X123082326Y-102651928D01*
X123062974Y-102615724D01*
X122968001Y-102499999D01*
X122939003Y-102476201D01*
X121297804Y-100835003D01*
X121274001Y-100805999D01*
X121158276Y-100711026D01*
X121026247Y-100640454D01*
X120882986Y-100596997D01*
X120771333Y-100586000D01*
X120771322Y-100586000D01*
X120734000Y-100582324D01*
X120696678Y-100586000D01*
X118003527Y-100586000D01*
X117994472Y-100556149D01*
X117912405Y-100402613D01*
X117801962Y-100268038D01*
X117667387Y-100157595D01*
X117513851Y-100075528D01*
X117347255Y-100024992D01*
X117174001Y-100007928D01*
X116523999Y-100007928D01*
X116350745Y-100024992D01*
X116184149Y-100075528D01*
X116030613Y-100157595D01*
X115896038Y-100268038D01*
X115824000Y-100355816D01*
X115751962Y-100268038D01*
X115617387Y-100157595D01*
X115463851Y-100075528D01*
X115297255Y-100024992D01*
X115124001Y-100007928D01*
X114473999Y-100007928D01*
X114300745Y-100024992D01*
X114134149Y-100075528D01*
X113980613Y-100157595D01*
X113846038Y-100268038D01*
X113786805Y-100340213D01*
X113639939Y-100311000D01*
X113572973Y-100311000D01*
X113572973Y-100296826D01*
X117035800Y-96834000D01*
X117421957Y-96834000D01*
X117525363Y-96988759D01*
X117725241Y-97188637D01*
X117957759Y-97344000D01*
X117725241Y-97499363D01*
X117525363Y-97699241D01*
X117368320Y-97934273D01*
X117260147Y-98195426D01*
X117205000Y-98472665D01*
X117205000Y-98755335D01*
X117260147Y-99032574D01*
X117368320Y-99293727D01*
X117525363Y-99528759D01*
X117725241Y-99728637D01*
X117960273Y-99885680D01*
X118221426Y-99993853D01*
X118498665Y-100049000D01*
X118781335Y-100049000D01*
X119058574Y-99993853D01*
X119319727Y-99885680D01*
X119554759Y-99728637D01*
X119754637Y-99528759D01*
X119911680Y-99293727D01*
X120019853Y-99032574D01*
X120075000Y-98755335D01*
X120075000Y-98472665D01*
X120019853Y-98195426D01*
X119911680Y-97934273D01*
X119754637Y-97699241D01*
X119554759Y-97499363D01*
X119322241Y-97344000D01*
X119554759Y-97188637D01*
X119754637Y-96988759D01*
X119911680Y-96753727D01*
X120019853Y-96492574D01*
X120075000Y-96215335D01*
X120075000Y-95932665D01*
X120019853Y-95655426D01*
X119911680Y-95394273D01*
X119754637Y-95159241D01*
X119554759Y-94959363D01*
X119322241Y-94804000D01*
X119554759Y-94648637D01*
X119754637Y-94448759D01*
X119911680Y-94213727D01*
X120019853Y-93952574D01*
X120075000Y-93675335D01*
X120075000Y-93392665D01*
X120019853Y-93115426D01*
X119911680Y-92854273D01*
X119754637Y-92619241D01*
X119554759Y-92419363D01*
X119319727Y-92262320D01*
X119309135Y-92257933D01*
X119495131Y-92146385D01*
X119703519Y-91957414D01*
X119871037Y-91731420D01*
X119991246Y-91477087D01*
X120031904Y-91343039D01*
X119909915Y-91121000D01*
X118767000Y-91121000D01*
X118767000Y-91141000D01*
X118513000Y-91141000D01*
X118513000Y-91121000D01*
X117370085Y-91121000D01*
X117248096Y-91343039D01*
X117288754Y-91477087D01*
X117408963Y-91731420D01*
X117576481Y-91957414D01*
X117784869Y-92146385D01*
X117970865Y-92257933D01*
X117960273Y-92262320D01*
X117725241Y-92419363D01*
X117525363Y-92619241D01*
X117368320Y-92854273D01*
X117260147Y-93115426D01*
X117205000Y-93392665D01*
X117205000Y-93675335D01*
X117260147Y-93952574D01*
X117368320Y-94213727D01*
X117525363Y-94448759D01*
X117725241Y-94648637D01*
X117957759Y-94804000D01*
X117725241Y-94959363D01*
X117525363Y-95159241D01*
X117421957Y-95314000D01*
X116758321Y-95314000D01*
X116720998Y-95310324D01*
X116683675Y-95314000D01*
X116683665Y-95314000D01*
X116572012Y-95324997D01*
X116443385Y-95364015D01*
X116428751Y-95368454D01*
X116296721Y-95439026D01*
X116256238Y-95472250D01*
X116180997Y-95533999D01*
X116157199Y-95562997D01*
X112301971Y-99418226D01*
X112272973Y-99442024D01*
X112249175Y-99471022D01*
X112249174Y-99471023D01*
X112177999Y-99557749D01*
X112107427Y-99689779D01*
X112090016Y-99747178D01*
X112063971Y-99833039D01*
X112058786Y-99885680D01*
X112049297Y-99982025D01*
X112052974Y-100019357D01*
X112052973Y-103122107D01*
X111966815Y-103192815D01*
X111887463Y-103289506D01*
X111828498Y-103399820D01*
X111792188Y-103519518D01*
X111779928Y-103644000D01*
X109234072Y-103644000D01*
X109234072Y-103240000D01*
X109221812Y-103115518D01*
X109185502Y-102995820D01*
X109126537Y-102885506D01*
X109047185Y-102788815D01*
X108950494Y-102709463D01*
X108840180Y-102650498D01*
X108720482Y-102614188D01*
X108596000Y-102601928D01*
X106796000Y-102601928D01*
X106671518Y-102614188D01*
X106551820Y-102650498D01*
X106441506Y-102709463D01*
X106424000Y-102723830D01*
X106424000Y-100787614D01*
X106482387Y-100756405D01*
X106616962Y-100645962D01*
X106622342Y-100639406D01*
X106687815Y-100719185D01*
X106784506Y-100798537D01*
X106894820Y-100857502D01*
X107014518Y-100893812D01*
X107139000Y-100906072D01*
X107428250Y-100903000D01*
X107587000Y-100744250D01*
X107587000Y-99695000D01*
X107841000Y-99695000D01*
X107841000Y-100744250D01*
X107999750Y-100903000D01*
X108289000Y-100906072D01*
X108413482Y-100893812D01*
X108533180Y-100857502D01*
X108643494Y-100798537D01*
X108740185Y-100719185D01*
X108819537Y-100622494D01*
X108878502Y-100512180D01*
X108914812Y-100392482D01*
X108927072Y-100268000D01*
X108924000Y-99853750D01*
X108765250Y-99695000D01*
X107841000Y-99695000D01*
X107587000Y-99695000D01*
X107567000Y-99695000D01*
X107567000Y-99441000D01*
X107587000Y-99441000D01*
X107587000Y-98391750D01*
X107841000Y-98391750D01*
X107841000Y-99441000D01*
X108765250Y-99441000D01*
X108924000Y-99282250D01*
X108927072Y-98868000D01*
X108914812Y-98743518D01*
X108878502Y-98623820D01*
X108819537Y-98513506D01*
X108740185Y-98416815D01*
X108643494Y-98337463D01*
X108533180Y-98278498D01*
X108413482Y-98242188D01*
X108289000Y-98229928D01*
X107999750Y-98233000D01*
X107841000Y-98391750D01*
X107587000Y-98391750D01*
X107428250Y-98233000D01*
X107139000Y-98229928D01*
X107014518Y-98242188D01*
X106894820Y-98278498D01*
X106784506Y-98337463D01*
X106687815Y-98416815D01*
X106622342Y-98496594D01*
X106616962Y-98490038D01*
X106482387Y-98379595D01*
X106328851Y-98297528D01*
X106162255Y-98246992D01*
X105989001Y-98229928D01*
X105338999Y-98229928D01*
X105165745Y-98246992D01*
X104999149Y-98297528D01*
X104845613Y-98379595D01*
X104711038Y-98490038D01*
X104600595Y-98624613D01*
X104518528Y-98778149D01*
X104467992Y-98944745D01*
X104450928Y-99117999D01*
X104450928Y-100018001D01*
X104467992Y-100191255D01*
X104518528Y-100357851D01*
X104600595Y-100511387D01*
X104711038Y-100645962D01*
X104845613Y-100756405D01*
X104904001Y-100787614D01*
X104904000Y-102625053D01*
X104708257Y-102663989D01*
X104428905Y-102779701D01*
X104177495Y-102947688D01*
X103963688Y-103161495D01*
X103809000Y-103393002D01*
X103809000Y-90780816D01*
X103875000Y-90780816D01*
X103875000Y-91083184D01*
X103933989Y-91379743D01*
X104049701Y-91659095D01*
X104217688Y-91910505D01*
X104431495Y-92124312D01*
X104650000Y-92270313D01*
X104650001Y-94743445D01*
X104591595Y-94814613D01*
X104509528Y-94968149D01*
X104458992Y-95134745D01*
X104441928Y-95307999D01*
X104441928Y-96208001D01*
X104458992Y-96381255D01*
X104509528Y-96547851D01*
X104591595Y-96701387D01*
X104702038Y-96835962D01*
X104836613Y-96946405D01*
X104990149Y-97028472D01*
X105156745Y-97079008D01*
X105329999Y-97096072D01*
X105980001Y-97096072D01*
X106153255Y-97079008D01*
X106319851Y-97028472D01*
X106473387Y-96946405D01*
X106607962Y-96835962D01*
X106613342Y-96829406D01*
X106678815Y-96909185D01*
X106775506Y-96988537D01*
X106885820Y-97047502D01*
X107005518Y-97083812D01*
X107130000Y-97096072D01*
X107419250Y-97093000D01*
X107578000Y-96934250D01*
X107578000Y-95885000D01*
X107832000Y-95885000D01*
X107832000Y-96934250D01*
X107990750Y-97093000D01*
X108280000Y-97096072D01*
X108404482Y-97083812D01*
X108524180Y-97047502D01*
X108634494Y-96988537D01*
X108731185Y-96909185D01*
X108810537Y-96812494D01*
X108869502Y-96702180D01*
X108905812Y-96582482D01*
X108918072Y-96458000D01*
X108915000Y-96043750D01*
X108756250Y-95885000D01*
X107832000Y-95885000D01*
X107578000Y-95885000D01*
X107558000Y-95885000D01*
X107558000Y-95631000D01*
X107578000Y-95631000D01*
X107578000Y-94581750D01*
X107832000Y-94581750D01*
X107832000Y-95631000D01*
X108756250Y-95631000D01*
X108915000Y-95472250D01*
X108918072Y-95058000D01*
X108905812Y-94933518D01*
X108869502Y-94813820D01*
X108810537Y-94703506D01*
X108731185Y-94606815D01*
X108634494Y-94527463D01*
X108524180Y-94468498D01*
X108404482Y-94432188D01*
X108280000Y-94419928D01*
X107990750Y-94423000D01*
X107832000Y-94581750D01*
X107578000Y-94581750D01*
X107419250Y-94423000D01*
X107130000Y-94419928D01*
X107005518Y-94432188D01*
X106885820Y-94468498D01*
X106775506Y-94527463D01*
X106678815Y-94606815D01*
X106613342Y-94686594D01*
X106607962Y-94680038D01*
X106473387Y-94569595D01*
X106319851Y-94487528D01*
X106170000Y-94442072D01*
X106170000Y-92270313D01*
X106388505Y-92124312D01*
X106454944Y-92057873D01*
X106460498Y-92076180D01*
X106519463Y-92186494D01*
X106598815Y-92283185D01*
X106695506Y-92362537D01*
X106805820Y-92421502D01*
X106925518Y-92457812D01*
X107050000Y-92470072D01*
X108850000Y-92470072D01*
X108974482Y-92457812D01*
X109094180Y-92421502D01*
X109204494Y-92362537D01*
X109301185Y-92283185D01*
X109380537Y-92186494D01*
X109439502Y-92076180D01*
X109475812Y-91956482D01*
X109488072Y-91832000D01*
X109488072Y-90032000D01*
X109475812Y-89907518D01*
X109439502Y-89787820D01*
X109380537Y-89677506D01*
X109301185Y-89580815D01*
X109204494Y-89501463D01*
X109094180Y-89442498D01*
X108974482Y-89406188D01*
X108850000Y-89393928D01*
X107050000Y-89393928D01*
X106925518Y-89406188D01*
X106805820Y-89442498D01*
X106695506Y-89501463D01*
X106598815Y-89580815D01*
X106519463Y-89677506D01*
X106460498Y-89787820D01*
X106454944Y-89806127D01*
X106388505Y-89739688D01*
X106137095Y-89571701D01*
X105857743Y-89455989D01*
X105561184Y-89397000D01*
X105258816Y-89397000D01*
X104962257Y-89455989D01*
X104682905Y-89571701D01*
X104431495Y-89739688D01*
X104217688Y-89953495D01*
X104049701Y-90204905D01*
X103933989Y-90484257D01*
X103875000Y-90780816D01*
X103809000Y-90780816D01*
X103809000Y-87807000D01*
X120783048Y-87807000D01*
X120783048Y-88657427D01*
M02*
